<?xml version="1.0" encoding="utf-8"?>
<!-- Generator: Adobe Illustrator 22.1.0, SVG Export Plug-In . SVG Version: 6.00 Build 0)  -->
<svg version="1.1" id="Layer_1" xmlns="http://www.w3.org/2000/svg" xmlns:xlink="http://www.w3.org/1999/xlink" x="0px" y="0px"
	 viewBox="0 0 1531.5 730" style="enable-background:new 0 0 1531.5 730;" xml:space="preserve">
<style type="text/css">
	.st0{fill:#FFFFFF;}
	.st1{fill:none;}
	.st2{opacity:0.22;}
	.st3{fill:none;stroke:#5E94C0;stroke-width:0.86;stroke-linejoin:round;}
	.st4{fill:#5E94C0;}
</style>
<title>Asset 3</title>
<g id="Layer_2_1_">
	<g id="Layer_1-2">
		<rect x="8.9" y="103" class="st0" width="1499.3" height="499.8"/>
		<g>
			<rect x="8.9" y="103" class="st1" width="1499.3" height="499.8"/>
			<g>
				<g class="st2">
					<polygon class="st3" points="980.5,624.4 893.8,599.8 827,516.3 803.5,445 775.6,357 731.5,390.6 700.7,419.1 674.3,450.2 
						734.5,505.9 802,549.9 791.8,575.8 800.6,621.2 866.7,666.5 882.8,621.2 929.8,667.8 944.5,669.1 1023.8,640.6 					"/>
					<polygon class="st3" points="571.5,347.9 571.5,366 593.5,384.2 674.3,450.2 700.7,489.1 734.5,505.9 668.4,535.7 719.8,587.5 
						802,549.9 894.6,600.4 882.8,621.2 981.2,625 944.5,669.1 894.6,707.9 866.7,666.5 805,705.3 800.6,621.2 711,660 634.6,584.9 
						550.9,594 501,522.7 477.5,430.8 448.1,381.6 393.7,303.9 467.2,270.2 518.6,261.1 					"/>
					<polygon class="st3" points="719.8,587.5 647.8,636.7 634.6,584.9 668.4,535.7 674.3,450.2 803.5,445 734.5,505.9 					"/>
					<polygon class="st3" points="725.7,606.9 719.8,587.5 634.6,584.9 					"/>
					<polygon class="st3" points="711,660 725.7,606.9 647.8,636.7 550.9,594 492.1,534.4 459.8,517.6 477.5,430.8 459.8,426.9 
						448.1,381.6 323.2,349.2 333.5,441.1 289.5,455.4 268.9,398.4 224.8,467 223.4,508.5 233.7,518.8 257.2,564.2 339.4,584.9 
						423.1,577.1 462.8,609.5 503.9,696.3 644.9,713.1 					"/>
					<polygon class="st3" points="357,648.4 462.8,609.5 550.9,594 459.8,517.6 423.1,577.1 492.1,534.4 459.8,426.9 501,522.7 
						473.1,582.3 					"/>
					<polygon class="st3" points="280.7,375.1 268.9,398.4 333.5,441.1 314.4,394.5 310,359.6 					"/>
					<line class="st3" x1="333.5" y1="441.1" x2="280.7" y2="375.1"/>
					<polyline class="st3" points="571.5,347.9 656.6,315.5 593.5,384.2 					"/>
					<polyline class="st3" points="458.4,262.4 496.5,231.3 553.8,199 451,178.2 458.4,262.4 518.6,261.1 496.5,231.3 415.8,189.9 
						514.2,213.2 553.8,199 641.9,215.8 656.6,315.5 571.5,366 					"/>
					<polyline class="st3" points="496.5,231.3 451,178.2 514.2,213.2 549.4,130.3 659.6,130.3 641.9,215.8 					"/>
					<polyline class="st3" points="343.8,73.3 367.3,53.9 358.5,120 415.8,189.9 451,178.2 					"/>
					<polyline class="st3" points="423.1,577.1 340.1,639.3 339.4,584.9 260.1,601.7 161.7,621.2 139.7,688.5 177.8,706.6 
						246.9,666.5 280.7,711.8 301.2,693.7 357,648.4 335,718.3 321.8,640.6 					"/>
					<polyline class="st3" points="301.2,693.7 340.9,639.3 335,718.3 280.7,711.8 177.8,706.6 161.7,621.2 70.6,574.5 					"/>
					<line class="st3" x1="246.9" y1="666.5" x2="357" y2="648.4"/>
					<polygon class="st3" points="725.7,606.9 791.8,575.8 734.5,505.9 827,516.3 802,549.9 882.8,621.2 800.6,621.2 					"/>
					<polyline class="st3" points="503.9,696.3 647.8,636.7 711,660 719.8,587.5 791.8,575.8 882.8,621.2 805,705.3 894.6,707.9 
						929.8,667.8 981.2,625 1056.1,684.6 1023.8,640.6 1053.4,722.4 					"/>
					<polygon class="st3" points="791.8,575.8 894.6,600.4 944.5,669.1 1056.1,684.6 1145.7,683.3 1229.4,645.8 1239.7,601.7 
						1173.6,543.5 1138.4,542.2 1116.3,507.2 1217.7,507.2 1203,421.7 1173.6,413.9 1156,372.5 1098.7,293.5 1042.9,312.9 
						1029.7,303.9 981.2,324.6 963.6,332.4 951.8,430.8 938.6,450.2 965.1,483.9 912.2,529.2 802,549.9 					"/>
					<polyline class="st3" points="1138.4,542.2 1217.7,507.2 1239.7,601.7 1297,609.5 1267.6,628.9 1229.4,645.8 					"/>
					<polyline class="st3" points="1116.3,507.2 1173.6,543.5 1217.7,507.2 					"/>
					<polyline class="st3" points="1239.7,601.7 1267.6,628.9 1360.1,613.4 1297,609.5 					"/>
					<polygon class="st3" points="1495.3,709.2 1473.2,643.2 1490.9,610.8 1433.6,623.8 1449.7,670.4 					"/>
					<polyline class="st3" points="897.5,335 934.2,319.4 981.2,324.6 963.6,232.6 1029.7,303.9 1097.2,281.9 1135.4,272.8 
						1079.6,209.3 1097.2,281.9 1098.7,293.5 1029.7,303.9 934.2,319.4 901.9,324.6 897.5,335 963.6,332.4 934.2,319.4 963.6,232.6 
						923.9,183.4 894.6,177 960.7,107 957.7,154.9 1062,193.8 1091.4,157.5 1057.6,92.8 976.8,122.6 959.2,81.1 1060.5,83.7 
						1114.9,120 1079.6,209.3 1191.2,214.5 1135.4,272.8 1169.2,270.2 1239.7,271.5 1261.7,231.3 1285.2,184.7 1191.2,214.5 
						1169.2,270.2 1098.7,293.5 1135.4,272.8 1042.9,312.9 963.6,332.4 963.6,232.6 894.6,177 976.8,122.6 1060.5,83.7 1025.3,53.9 
						963.6,43.6 959.2,81.1 960.7,107 860.8,59.1 743.3,59.1 659.6,130.3 752.1,95.4 810.8,78.5 860.8,59.1 959.2,81.1 1025.3,53.9 
						976.8,122.6 957.7,154.9 963.6,232.6 1062,193.8 1079.6,209.3 1091.4,157.5 1114.9,120 1087,50 1060.5,83.7 1057.6,92.8 
						960.7,107 923.9,183.4 957.7,154.9 894.6,177 					"/>
					<polyline class="st3" points="1135.4,272.8 1236.8,305.2 1239.7,271.5 1332.2,232.6 1299.9,200.3 1285.2,184.7 1299.9,138.1 
						1289.6,78.5 1087,50 1025.3,53.9 					"/>
					<line class="st3" x1="1057.6" y1="92.8" x2="959.2" y2="81.1"/>
					<polyline class="st3" points="752.1,95.4 743.3,59.1 810.8,78.5 					"/>
					<polyline class="st3" points="1156,372.5 1257.3,342.7 1260.3,305.2 1261.7,231.3 1332.2,232.6 1411.5,182.1 1427.7,267.6 
						1398.3,332.4 1313.1,303.9 1355.7,233.9 1299.9,200.3 1299.9,138.1 1332.2,232.6 					"/>
					<polyline class="st3" points="1079.6,209.3 1169.2,270.2 1260.3,305.2 1313.1,303.9 1257.3,342.7 1203,421.7 1156,372.5 
						1236.8,305.2 1257.3,342.7 1239.7,271.5 1191.2,214.5 1261.7,231.3 1313.1,303.9 1332.2,232.6 1260.3,305.2 1236.8,305.2 
						1191.2,214.5 1299.9,200.3 					"/>
					<polyline class="st3" points="1398.3,332.4 1454.1,280.6 1435,284.4 1427.7,267.6 1410.1,342.7 1393.9,430.8 1436.5,463.2 
						1349.9,448.9 					"/>
					<polyline class="st3" points="1398.3,332.4 1435,284.4 1410.1,342.7 1239.7,271.5 1299.9,200.3 					"/>
					<polyline class="st3" points="1169.2,270.2 1261.7,231.3 1299.9,200.3 1411.5,182.1 1355.7,233.9 1435,284.4 1332.2,232.6 
						1355.7,233.9 1427.7,267.6 1454.1,280.6 1410.1,342.7 1398.3,332.4 1393.9,430.8 1349.9,448.9 1338.1,508.5 1436.5,463.2 
						1529,404.9 1393.9,430.8 1338.1,508.5 					"/>
					<line class="st3" x1="1260.3" y1="305.2" x2="1239.7" y2="271.5"/>
					<polygon class="st3" points="1289.6,78.5 1357.2,28 1418.9,79.8 1421.8,3.4 1208.9,41 					"/>
					<polyline class="st3" points="1421.8,3.4 1357.2,28 1208.9,41 					"/>
					<polyline class="st3" points="367.3,53.9 293.9,53.9 180.8,47.4 191.1,68.2 					"/>
					<line class="st3" x1="4.5" y1="56.5" x2="180.8" y2="47.4"/>
					<polyline class="st3" points="20.7,167.9 10.4,231.3 111.8,183.4 205.8,186 141.1,202.9 219,233.9 320.3,244.3 226.3,262.4 
						219,233.9 205.8,186 185.2,245.6 141.1,202.9 111.8,183.4 116.2,171.8 53,169.2 20.7,167.9 4.5,56.5 191.1,68.2 293.9,53.9 
						343.8,73.3 358.5,120 451,178.2 549.4,130.3 553.8,199 518.6,261.1 514.2,213.2 496.5,231.3 467.2,270.2 458.4,262.4 
						415.8,189.9 320.3,244.3 393.7,303.9 323.2,349.2 314.4,394.5 280.7,375.1 289.5,455.4 310,359.6 323.2,349.2 					"/>
					<polyline class="st3" points="185.2,245.6 226.3,262.4 141.1,202.9 116.2,171.8 205.8,186 					"/>
					<polyline class="st3" points="116.2,171.8 10.4,231.3 53,169.2 141.1,202.9 					"/>
					<line class="st3" x1="53" y1="169.2" x2="111.8" y2="183.4"/>
					<polyline class="st3" points="310,359.6 268.9,398.4 314.4,394.5 289.5,455.4 233.7,518.8 260.1,601.7 246.9,666.5 
						301.2,693.7 321.8,640.6 357,648.4 339.4,584.9 321.8,640.6 246.9,666.5 139.7,688.5 35.4,678.1 36.9,597.8 70.6,574.5 
						76.5,560.3 161.7,621.2 257.2,564.2 260.1,601.7 357,648.4 423.1,577.1 473.1,582.3 462.8,609.5 459.8,517.6 501,522.7 					
						"/>
					<polygon class="st3" points="260.1,601.7 321.8,640.6 257.2,564.2 224.8,467 289.5,455.4 223.4,508.5 					"/>
					<line class="st3" x1="161.7" y1="621.2" x2="246.9" y2="666.5"/>
					<line class="st3" x1="76.5" y1="560.3" x2="36.9" y2="597.8"/>
					<polyline class="st3" points="613.3,709.4 647.8,636.7 581,706 					"/>
					<polyline class="st3" points="1087,726.1 1000.3,717 894.6,707.9 					"/>
					<polyline class="st3" points="1023.8,640.6 1000.3,717 944.5,669.1 882.8,621.2 					"/>
					<polyline class="st3" points="873.3,707.7 866.7,666.5 929.8,667.8 					"/>
					<polyline class="st3" points="894.6,600.4 800.6,621.2 719.8,587.5 					"/>
					<line class="st3" x1="912.2" y1="529.2" x2="938.6" y2="450.2"/>
					<line class="st3" x1="965.1" y1="483.9" x2="951.8" y2="430.8"/>
					<polyline class="st3" points="716.9,722.2 711,660 805,705.3 716.9,722.2 644.9,713.1 647.8,636.7 668.4,535.7 700.7,489.1 
						803.5,445 731.5,390.6 700.7,489.1 700.7,419.1 734.5,505.9 725.7,606.9 					"/>
					<line class="st3" x1="700.7" y1="419.1" x2="803.5" y2="445"/>
					<polyline class="st3" points="775.6,357 758,309 656.6,315.5 					"/>
					<line class="st3" x1="731.5" y1="390.6" x2="758" y2="309"/>
					<polyline class="st3" points="791.8,575.8 827,516.3 912.2,529.2 894.6,600.4 929.8,667.8 1000.3,717 1056.1,684.6 1087,726.1 
						1145.7,683.3 					"/>
					<polyline class="st3" points="668.4,535.7 725.7,606.9 802,549.9 800.6,621.2 					"/>
					<polygon class="st3" points="1360.1,613.4 1449.7,670.4 1473.2,643.2 1433.6,623.8 					"/>
					<polygon class="st3" points="1473.2,643.2 1518.8,658.7 1495.3,709.2 1476.2,714.4 1433.6,623.8 1524.6,631.5 1490.9,610.8 
						1473.2,692.1 					"/>
					<line class="st3" x1="1518.8" y1="658.7" x2="1524.6" y2="631.5"/>
					<path class="st4" d="M800.7,624.7c-1.7-0.3-2.8-1.8-2.5-3.5s1.8-2.8,3.5-2.5c1.5,0.2,2.6,1.5,2.6,3
						C804.1,623.5,802.5,624.8,800.7,624.7z"/>
					<path class="st0" d="M800.7,619.5c1.2,0.3,2,1.4,1.7,2.6c-0.3,1.2-1.4,2-2.6,1.7c-1-0.2-1.7-1.1-1.8-2.2
						C798.2,620.4,799.4,619.4,800.7,619.5 M800.7,617.8c-2.1,0.3-3.7,2.2-3.4,4.4c0.3,2.1,2.2,3.7,4.4,3.4c2-0.2,3.4-1.9,3.4-3.9
						C804.9,619.4,803,617.7,800.7,617.8z"/>
					<path class="st4" d="M725,610.1c-1.7-0.3-2.8-1.8-2.6-3.5c0.3-1.7,1.8-2.8,3.5-2.6c1.5,0.2,2.6,1.5,2.6,3.1
						C728.4,608.9,726.8,610.2,725,610.1z"/>
					<path class="st0" d="M725,604.9c1.2,0.3,2,1.4,1.7,2.6s-1.4,2-2.6,1.7c-1-0.2-1.7-1.1-1.8-2.2
						C722.5,605.7,723.7,604.7,725,604.9 M725,603.1c-2.1,0.3-3.7,2.2-3.4,4.4c0.3,2.1,2.2,3.7,4.4,3.4c2-0.2,3.4-1.9,3.4-3.9
						C729.3,604.7,727.3,603,725,603.1z"/>
					<path class="st4" d="M719,589.9c-1.7-0.3-2.8-1.8-2.5-3.5s1.8-2.8,3.5-2.5c1.5,0.2,2.6,1.5,2.6,3
						C722.4,588.7,720.8,590,719,589.9z"/>
					<path class="st0" d="M719,584.7c1.2,0.3,2,1.4,1.7,2.6s-1.4,2-2.6,1.7c-1-0.2-1.7-1.1-1.8-2.2
						C716.5,585.5,717.7,584.5,719,584.7 M719,583c-2.1,0.3-3.7,2.2-3.4,4.4c0.3,2.1,2.2,3.7,4.4,3.4c2-0.2,3.4-1.9,3.4-3.9
						C723.3,584.6,721.3,582.8,719,583z"/>
					<path class="st4" d="M734.8,509.1c-1.7-0.3-2.8-1.8-2.6-3.5c0.3-1.7,1.8-2.8,3.5-2.6c1.5,0.2,2.6,1.5,2.6,3.1
						C738.2,507.9,736.6,509.3,734.8,509.1z"/>
					<path class="st0" d="M734.8,504c1.2,0.3,2,1.4,1.7,2.6s-1.4,2-2.6,1.7c-1-0.2-1.7-1.1-1.8-2.2
						C732.3,504.8,733.5,503.8,734.8,504 M734.8,502.2c-2.1,0.3-3.7,2.2-3.4,4.4c0.3,2.1,2.2,3.7,4.4,3.4c2-0.2,3.4-1.9,3.4-3.9
						C739.1,503.8,737.1,502.1,734.8,502.2z"/>
					<path class="st4" d="M668.6,538.8c-1.7-0.3-2.8-1.8-2.6-3.5c0.3-1.7,1.8-2.8,3.5-2.6c1.5,0.2,2.6,1.5,2.6,3.1
						C671.9,537.6,670.4,539,668.6,538.8z"/>
					<path class="st0" d="M668.6,533.6c1.2,0.3,2,1.4,1.7,2.6s-1.4,2-2.6,1.7c-1-0.2-1.7-1.1-1.8-2.2
						C666,534.5,667.2,533.5,668.6,533.6 M668.6,531.9c-2.1,0.3-3.7,2.2-3.4,4.4c0.3,2.2,2.2,3.7,4.4,3.4c2-0.2,3.4-1.9,3.4-3.9
						C672.8,533.5,670.9,531.8,668.6,531.9z"/>
					<path class="st4" d="M700.5,492.1c-1.7-0.3-2.8-1.8-2.6-3.5c0.3-1.7,1.8-2.8,3.5-2.6c1.5,0.2,2.6,1.5,2.6,3.1
						C703.8,490.9,702.3,492.2,700.5,492.1z"/>
					<path class="st0" d="M700.5,486.9c1.2,0.3,2,1.4,1.7,2.6s-1.4,2-2.6,1.7c-1-0.2-1.7-1.1-1.8-2.2
						C697.9,487.7,699.1,486.8,700.5,486.9 M700.5,485.2c-2.1,0.3-3.7,2.2-3.4,4.4c0.3,2.1,2.2,3.7,4.4,3.4c2-0.2,3.4-1.9,3.4-3.9
						C704.7,486.8,702.7,485,700.5,485.2z"/>
					<path class="st4" d="M801.9,449.1c-1.7-0.3-2.8-1.8-2.5-3.5s1.8-2.8,3.5-2.5c1.5,0.2,2.6,1.5,2.6,3
						C805.3,447.9,803.7,449.2,801.9,449.1z"/>
					<path class="st0" d="M801.9,444c1.2,0.3,2,1.4,1.7,2.6s-1.4,2-2.6,1.7c-1-0.2-1.8-1.1-1.7-2.2
						C799.4,444.8,800.6,443.8,801.9,444 M801.9,442.2c-2.1,0.3-3.7,2.2-3.4,4.4c0.3,2.1,2.2,3.7,4.4,3.4c2-0.2,3.4-1.9,3.4-3.9
						C806.2,443.8,804.2,442.1,801.9,442.2z"/>
					<path class="st4" d="M675,453.6c-1.7-0.3-2.8-1.8-2.5-3.5s1.8-2.8,3.5-2.5c1.5,0.2,2.6,1.5,2.6,3
						C678.4,452.4,676.8,453.7,675,453.6z"/>
					<path class="st0" d="M675,448.4c1.2,0.3,2,1.4,1.7,2.6s-1.4,2-2.6,1.7c-1-0.2-1.7-1.1-1.8-2.2
						C672.5,449.2,673.7,448.2,675,448.4 M675,446.7c-2.1,0.3-3.7,2.2-3.4,4.4c0.3,2.1,2.2,3.7,4.4,3.4c2-0.2,3.4-1.9,3.4-3.9
						C679.3,448.2,677.3,446.5,675,446.7z"/>
					<path class="st4" d="M700.9,423.7c-1.7-0.3-2.8-1.8-2.6-3.5c0.3-1.7,1.8-2.8,3.5-2.6c1.5,0.2,2.6,1.5,2.6,3.1
						C704.3,422.5,702.7,423.9,700.9,423.7z"/>
					<path class="st0" d="M700.9,418.5c1.2,0.3,2,1.4,1.7,2.6s-1.4,2-2.6,1.7c-1-0.2-1.7-1.1-1.8-2.2
						C698.4,419.4,699.6,418.4,700.9,418.5 M700.9,416.8c-2.1,0.3-3.7,2.2-3.4,4.4c0.3,2.1,2.2,3.7,4.4,3.4c2-0.2,3.4-1.9,3.4-3.9
						C705.2,418.4,703.2,416.7,700.9,416.8z"/>
					<path class="st4" d="M731.5,394.2c-1.7-0.3-2.8-1.8-2.5-3.5s1.8-2.8,3.5-2.5c1.5,0.2,2.6,1.5,2.6,3
						C734.9,393,733.3,394.3,731.5,394.2z"/>
					<path class="st0" d="M731.5,389c1.2,0.3,2,1.4,1.7,2.6s-1.4,2-2.6,1.7c-1-0.2-1.7-1.1-1.8-2.2C729,389.9,730.2,388.9,731.5,389
						 M731.5,387.3c-2.1,0.3-3.7,2.2-3.4,4.4c0.3,2.1,2.2,3.7,4.4,3.4c2-0.2,3.4-1.9,3.4-3.9C735.8,388.9,733.8,387.2,731.5,387.3z"
						/>
					<path class="st4" d="M775.5,360.6c-1.7-0.3-2.8-1.8-2.6-3.5c0.3-1.7,1.8-2.8,3.5-2.6c1.5,0.2,2.6,1.5,2.6,3.1
						C778.9,359.4,777.3,360.7,775.5,360.6z"/>
					<path class="st0" d="M775.5,355.4c1.2,0.3,2,1.4,1.7,2.6s-1.4,2-2.6,1.7c-1-0.2-1.7-1.1-1.8-2.2
						C773,356.2,774.2,355.2,775.5,355.4 M775.5,353.7c-2.1,0.3-3.7,2.2-3.4,4.4c0.3,2.1,2.2,3.7,4.4,3.4c2-0.2,3.4-1.9,3.4-3.9
						C779.8,355.3,777.8,353.5,775.5,353.7z"/>
					<path class="st4" d="M757.3,313c-1.7-0.3-2.8-1.8-2.6-3.5c0.3-1.7,1.8-2.8,3.5-2.6c1.5,0.2,2.6,1.5,2.6,3.1
						C760.6,311.8,759.1,313.2,757.3,313z"/>
					<path class="st0" d="M757.3,307.8c1.2,0.3,2,1.4,1.7,2.6s-1.4,2-2.6,1.7c-1-0.2-1.7-1.1-1.8-2.2
						C754.7,308.7,755.9,307.7,757.3,307.8 M757.3,306.1c-2.1,0.3-3.7,2.2-3.4,4.4c0.3,2.1,2.2,3.7,4.4,3.4c2-0.2,3.4-1.9,3.4-3.9
						C761.5,307.7,759.5,306,757.3,306.1z"/>
					<path class="st4" d="M655.8,319.2c-1.7-0.3-2.8-1.8-2.6-3.5c0.3-1.7,1.8-2.8,3.5-2.6c1.5,0.2,2.6,1.5,2.6,3.1
						C659.2,318,657.6,319.3,655.8,319.2z"/>
					<path class="st0" d="M655.8,314c1.2,0.3,2,1.4,1.7,2.6c-0.3,1.2-1.4,2-2.6,1.7c-1-0.2-1.8-1.1-1.8-2.2
						C653.3,314.8,654.4,313.8,655.8,314 M655.8,312.2c-2.1,0.3-3.7,2.2-3.4,4.4c0.3,2.1,2.2,3.7,4.4,3.4c2-0.2,3.4-1.9,3.4-3.9
						C660,313.8,658.1,312.1,655.8,312.2z"/>
					<path class="st4" d="M593.5,386.7c-1.7-0.3-2.8-1.8-2.5-3.5s1.8-2.8,3.5-2.5c1.5,0.2,2.6,1.5,2.6,3
						C596.9,385.5,595.3,386.8,593.5,386.7z"/>
					<path class="st0" d="M593.5,381.5c1.2,0.3,2,1.4,1.7,2.6s-1.4,2-2.6,1.7c-1-0.2-1.7-1.1-1.8-2.2
						C591,382.3,592.2,381.4,593.5,381.5 M593.5,379.8c-2.1,0.3-3.7,2.2-3.4,4.4c0.3,2.1,2.2,3.7,4.4,3.4c2-0.2,3.4-1.9,3.4-3.9
						C597.8,381.4,595.8,379.7,593.5,379.8z"/>
					<path class="st4" d="M571.3,368.8c-1.7-0.3-2.8-1.8-2.5-3.5s1.8-2.8,3.5-2.5c1.5,0.2,2.6,1.5,2.6,3
						C574.7,367.6,573.1,369,571.3,368.8z"/>
					<path class="st0" d="M571.3,363.6c1.2,0.3,2,1.4,1.7,2.6s-1.4,2-2.6,1.7c-1-0.2-1.7-1.1-1.8-2.2
						C568.8,364.5,570,363.5,571.3,363.6 M571.3,361.9c-2.1,0.3-3.7,2.2-3.4,4.4c0.3,2.1,2.2,3.7,4.4,3.4c2-0.2,3.4-1.9,3.4-3.9
						C575.6,363.5,573.6,361.8,571.3,361.9z"/>
					<path class="st4" d="M572.3,350.9c-1.7-0.3-2.8-1.8-2.6-3.5c0.3-1.7,1.8-2.8,3.5-2.6c1.5,0.2,2.6,1.5,2.6,3.1
						C575.6,349.6,574.1,351,572.3,350.9z"/>
					<path class="st0" d="M572.3,345.7c1.2,0.3,2,1.4,1.7,2.6s-1.4,2-2.6,1.7c-1-0.2-1.7-1.1-1.8-2.2
						C569.7,346.5,570.9,345.5,572.3,345.7 M572.3,343.9c-2.1,0.3-3.7,2.2-3.4,4.4c0.3,2.1,2.2,3.7,4.4,3.4c2-0.2,3.4-1.9,3.4-3.9
						C576.5,345.5,574.5,343.8,572.3,343.9z"/>
					<path class="st4" d="M518.3,263.5c-1.7-0.3-2.8-1.8-2.5-3.5c0.3-1.7,1.8-2.8,3.5-2.5c1.5,0.2,2.6,1.5,2.6,3
						C521.7,262.3,520.1,263.6,518.3,263.5z"/>
					<path class="st0" d="M518.3,258.3c1.2,0.3,2,1.4,1.7,2.6s-1.4,2-2.6,1.7c-1-0.2-1.7-1.1-1.8-2.2
						C515.8,259.1,517,258.2,518.3,258.3 M518.3,256.6c-2.1,0.3-3.7,2.2-3.4,4.4c0.3,2.1,2.2,3.7,4.4,3.4c2-0.2,3.4-1.9,3.4-3.9
						C522.6,258.2,520.6,256.4,518.3,256.6z"/>
					<path class="st4" d="M495.6,234.2c-1.7-0.3-2.8-1.8-2.5-3.5s1.8-2.8,3.5-2.5c1.5,0.2,2.6,1.5,2.6,3
						C498.9,232.9,497.4,234.3,495.6,234.2z"/>
					<path class="st0" d="M495.6,229c1.2,0.3,2,1.4,1.7,2.6s-1.4,2-2.6,1.7c-1-0.2-1.7-1.1-1.8-2.2C493,229.8,494.2,228.8,495.6,229
						 M495.6,227.2c-2.1,0.3-3.7,2.2-3.4,4.4s2.2,3.7,4.4,3.4c2-0.2,3.4-1.9,3.4-3.9C499.8,228.8,497.9,227.1,495.6,227.2z"/>
					<path class="st4" d="M458.5,265.6c-1.7-0.3-2.8-1.8-2.6-3.5c0.3-1.7,1.8-2.8,3.5-2.6c1.5,0.2,2.6,1.5,2.6,3.1
						C461.9,264.4,460.3,265.7,458.5,265.6z"/>
					<path class="st0" d="M458.5,260.4c1.2,0.3,2,1.4,1.7,2.6s-1.4,2-2.6,1.7c-1-0.2-1.7-1.1-1.8-2.2
						C456,261.2,457.2,260.3,458.5,260.4 M458.5,258.7c-2.1,0.3-3.7,2.2-3.4,4.4c0.3,2.1,2.2,3.7,4.4,3.4c2-0.2,3.4-1.9,3.4-3.9
						C462.8,260.3,460.8,258.5,458.5,258.7z"/>
					<path class="st4" d="M467.7,273.3c-1.7-0.3-2.8-1.8-2.5-3.5c0.3-1.7,1.8-2.8,3.5-2.5c1.5,0.2,2.6,1.5,2.6,3
						C471.1,272.1,469.5,273.4,467.7,273.3z"/>
					<path class="st0" d="M467.7,268.1c1.2,0.3,2,1.4,1.7,2.6s-1.4,2-2.6,1.7c-1-0.2-1.7-1.1-1.8-2.2
						C465.2,268.9,466.3,268,467.7,268.1 M467.7,266.4c-2.1,0.3-3.7,2.2-3.4,4.4c0.3,2.1,2.2,3.7,4.4,3.4c2-0.2,3.4-1.9,3.4-3.9
						C471.9,268,470,266.3,467.7,266.4z"/>
					<path class="st4" d="M513.4,216.3c-1.7-0.3-2.8-1.8-2.5-3.5s1.8-2.8,3.5-2.5c1.5,0.2,2.6,1.5,2.6,3
						C516.8,215.1,515.2,216.4,513.4,216.3z"/>
					<path class="st0" d="M513.4,211.1c1.2,0.3,2,1.4,1.7,2.6s-1.4,2-2.6,1.7c-1-0.2-1.7-1.1-1.8-2.2
						C510.9,211.9,512.1,211,513.4,211.1 M513.4,209.4c-2.1,0.3-3.7,2.2-3.4,4.4c0.3,2.2,2.2,3.7,4.4,3.4c2-0.2,3.4-1.9,3.4-3.9
						C517.7,211,515.7,209.2,513.4,209.4z"/>
					<path class="st4" d="M549.2,133.8c-1.7-0.3-2.8-1.8-2.5-3.5s1.8-2.8,3.5-2.5c1.5,0.2,2.6,1.5,2.6,3
						C552.6,132.6,551,133.9,549.2,133.8z"/>
					<path class="st0" d="M549.2,128.6c1.2,0.3,2,1.4,1.7,2.6c-0.3,1.2-1.4,2-2.6,1.7c-1-0.2-1.8-1.1-1.7-2.2
						C546.6,129.4,547.8,128.5,549.2,128.6 M549.2,126.9c-2.1,0.3-3.7,2.2-3.4,4.4c0.3,2.1,2.2,3.7,4.4,3.4c2-0.2,3.4-1.9,3.4-3.9
						C553.4,128.5,551.5,126.7,549.2,126.9z"/>
					<path class="st4" d="M452.4,182.5c-1.7-0.3-2.8-1.8-2.5-3.5s1.8-2.8,3.5-2.5c1.5,0.2,2.6,1.5,2.6,3
						C455.8,181.2,454.2,182.6,452.4,182.5z"/>
					<path class="st0" d="M452.4,177.3c1.2,0.3,2,1.4,1.7,2.6s-1.4,2-2.6,1.7c-1-0.2-1.7-1.1-1.8-2.2
						C449.9,178.1,451.1,177.1,452.4,177.3 M452.4,175.5c-2.1,0.3-3.7,2.2-3.4,4.4c0.3,2.1,2.2,3.7,4.4,3.4c2-0.2,3.4-1.9,3.4-3.9
						C456.7,177.1,454.7,175.4,452.4,175.5z"/>
					<path class="st4" d="M416.5,193.6c-1.7-0.3-2.8-1.8-2.5-3.5s1.8-2.8,3.5-2.5c1.5,0.2,2.6,1.5,2.6,3
						C419.9,192.4,418.3,193.7,416.5,193.6z"/>
					<path class="st0" d="M416.5,188.4c1.2,0.3,2,1.4,1.7,2.6s-1.4,2-2.6,1.7c-1-0.2-1.7-1.1-1.8-2.2
						C414,189.3,415.2,188.3,416.5,188.4 M416.5,186.7c-2.1,0.3-3.7,2.2-3.4,4.4c0.3,2.1,2.2,3.7,4.4,3.4c2-0.2,3.4-1.9,3.4-3.9
						C420.8,188.3,418.8,186.6,416.5,186.7z"/>
					<path class="st4" d="M552.6,202.4c-1.7-0.3-2.8-1.8-2.5-3.5s1.8-2.8,3.5-2.5c1.5,0.2,2.6,1.5,2.6,3
						C556,201.2,554.4,202.5,552.6,202.4z"/>
					<path class="st0" d="M552.6,197.2c1.2,0.3,2,1.4,1.7,2.6s-1.4,2-2.6,1.7c-1-0.2-1.7-1.1-1.8-2.2
						C550.1,198,551.2,197,552.6,197.2 M552.6,195.5c-2.1,0.3-3.7,2.2-3.4,4.4c0.3,2.1,2.2,3.7,4.4,3.4c2-0.2,3.4-1.9,3.4-3.9
						C556.8,197,554.9,195.3,552.6,195.5z"/>
					<path class="st4" d="M641.5,218.8c-1.7-0.3-2.8-1.8-2.5-3.5s1.8-2.8,3.5-2.5c1.5,0.2,2.6,1.5,2.6,3
						C644.8,217.6,643.3,218.9,641.5,218.8z"/>
					<path class="st0" d="M641.5,213.6c1.2,0.3,2,1.4,1.7,2.6s-1.4,2-2.6,1.7c-1-0.2-1.7-1.1-1.8-2.2
						C638.9,214.5,640.1,213.5,641.5,213.6 M641.5,211.9c-2.1,0.3-3.7,2.2-3.4,4.4c0.3,2.1,2.2,3.7,4.4,3.4c2-0.2,3.4-1.9,3.4-3.9
						C645.7,213.5,643.7,211.8,641.5,211.9z"/>
					<path class="st4" d="M659.6,133.6c-1.7-0.3-2.8-1.8-2.6-3.5s1.8-2.8,3.5-2.6c1.5,0.2,2.6,1.5,2.6,3.1
						C663,132.4,661.4,133.7,659.6,133.6z"/>
					<path class="st0" d="M659.6,128.4c1.2,0.3,2,1.4,1.7,2.6c-0.3,1.2-1.4,2-2.6,1.7c-1-0.2-1.7-1.1-1.8-2.2
						C657,129.2,658.2,128.2,659.6,128.4 M659.6,126.7c-2.1,0.3-3.7,2.2-3.4,4.4c0.3,2.1,2.2,3.7,4.4,3.4c2-0.2,3.4-1.9,3.4-3.9
						C663.8,128.3,661.9,126.5,659.6,126.7z"/>
					<path class="st4" d="M743.7,62.3c-1.7-0.3-2.8-1.8-2.5-3.5s1.8-2.8,3.5-2.5c1.5,0.2,2.6,1.5,2.6,3
						C747.1,61.1,745.5,62.4,743.7,62.3z"/>
					<path class="st0" d="M743.7,57.1c1.3-0.1,2.5,0.8,2.7,2.2c0.3,1.5-0.6,2.9-2.1,3.3c-1.5,0.3-2.9-0.6-3.3-2.1s0.6-2.9,2.1-3.3
						C743.3,57.1,743.5,57.1,743.7,57.1 M743.7,55.4c-2.1,0.3-3.7,2.2-3.4,4.4c0.3,2.1,2.2,3.7,4.4,3.4c2-0.2,3.4-1.9,3.4-3.9
						C747.9,57,746,55.2,743.7,55.4z"/>
					<path class="st4" d="M752.5,98.3c-1.7-0.3-2.8-1.8-2.5-3.5c0.3-1.7,1.8-2.8,3.5-2.5c1.5,0.2,2.6,1.5,2.6,3
						C755.9,97.1,754.3,98.5,752.5,98.3z"/>
					<path class="st0" d="M752.5,93.1c1.2,0.3,2,1.4,1.7,2.6c-0.3,1.2-1.4,2-2.6,1.7c-1-0.2-1.7-1.1-1.8-2.2
						C750,94,751.2,93,752.5,93.1 M752.5,91.4c-2.1,0.3-3.7,2.2-3.4,4.4c0.3,2.1,2.2,3.7,4.4,3.4c2-0.2,3.4-1.9,3.4-3.9
						C756.8,93,754.8,91.3,752.5,91.4z"/>
					<path class="st4" d="M809.6,81.2c-1.7-0.3-2.8-1.8-2.5-3.5c0.3-1.7,1.8-2.8,3.5-2.5c1.5,0.2,2.6,1.5,2.6,3
						C813,80,811.4,81.4,809.6,81.2z"/>
					<path class="st0" d="M809.6,76.1c1.2,0.3,2,1.4,1.7,2.6c-0.3,1.2-1.4,2-2.6,1.7c-1-0.2-1.8-1.1-1.7-2.2
						C807,76.9,808.2,75.9,809.6,76.1 M809.6,74.3c-2.1,0.3-3.6,2.3-3.3,4.4c0.3,2.1,2.3,3.6,4.4,3.3c1.9-0.3,3.4-1.9,3.4-3.9
						C813.9,75.9,811.9,74.2,809.6,74.3L809.6,74.3z"/>
					<path class="st4" d="M860.2,62.4c-1.7-0.3-2.8-1.8-2.5-3.5s1.8-2.8,3.5-2.5c1.5,0.2,2.6,1.5,2.6,3
						C863.6,61.2,862,62.5,860.2,62.4z"/>
					<path class="st0" d="M860.2,57.2c1.3-0.1,2.5,0.8,2.7,2.2c0.3,1.5-0.6,3-2.1,3.3s-3-0.6-3.3-2.1s0.6-3,2.1-3.3
						C859.8,57.2,860,57.2,860.2,57.2 M860.2,55.5c-2.1,0.3-3.7,2.2-3.4,4.4c0.3,2.1,2.2,3.7,4.4,3.4c2-0.2,3.4-1.9,3.4-3.9
						C864.4,57.1,862.5,55.3,860.2,55.5z"/>
					<path class="st4" d="M960,83.3c-1.7-0.3-2.8-1.8-2.5-3.5c0.3-1.7,1.8-2.8,3.5-2.5c1.5,0.2,2.6,1.5,2.6,3
						C963.4,82.1,961.8,83.4,960,83.3z"/>
					<path class="st0" d="M960,78.1c1.2,0.3,2,1.4,1.7,2.6c-0.3,1.2-1.4,2-2.6,1.7c-1-0.2-1.7-1.1-1.8-2.2
						C957.5,78.9,958.7,78,960,78.1 M960,76.4c-2.1,0.3-3.7,2.2-3.4,4.4c0.3,2.1,2.2,3.7,4.4,3.4c2-0.2,3.4-1.9,3.4-3.9
						C964.3,78,962.3,76.2,960,76.4z"/>
					<ellipse class="st4" cx="963.8" cy="43.8" rx="3.5" ry="3"/>
					<path class="st0" d="M963.8,41.6c1.3-0.1,2.5,0.8,2.7,2.2c-0.3,1.5-1.8,2.4-3.3,2.1c-1.1-0.2-1.9-1.1-2.1-2.1
						C961.3,42.4,962.4,41.5,963.8,41.6 M963.8,39.9c-2.3-0.1-4.3,1.6-4.4,3.9c0.3,2.4,2.5,4.2,5,3.8c2-0.3,3.6-1.8,3.8-3.8
						C968,41.5,966.1,39.8,963.8,39.9z"/>
					<path class="st4" d="M1024.9,57.4c-1.8,0.1-3.4-1.2-3.5-3c0.3-2,2.1-3.3,4.1-3c1.6,0.2,2.8,1.5,3,3
						C1028.3,56.2,1026.7,57.5,1024.9,57.4z"/>
					<path class="st0" d="M1024.9,52.2c1.3-0.1,2.5,0.8,2.7,2.2c-0.3,1.5-1.8,2.4-3.3,2.1c-1.1-0.2-1.9-1.1-2.1-2.1
						C1022.4,53,1023.6,52.1,1024.9,52.2 M1024.9,50.5c-2.3-0.1-4.3,1.6-4.4,3.9c0.3,2.4,2.5,4.2,5,3.8c2-0.3,3.6-1.8,3.8-3.8
						C1029.2,52.1,1027.2,50.4,1024.9,50.5z"/>
					<path class="st4" d="M977.5,125.2c-1.7-0.3-2.8-1.8-2.6-3.5c0.3-1.7,1.8-2.8,3.5-2.6c1.5,0.2,2.6,1.5,2.6,3.1
						C980.9,124,979.3,125.3,977.5,125.2z"/>
					<path class="st0" d="M977.5,120c1.2,0.3,2,1.4,1.7,2.6c-0.3,1.2-1.4,2-2.6,1.7c-1-0.2-1.7-1.1-1.8-2.2
						C975,120.8,976.2,119.8,977.5,120 M977.5,118.2c-2.1,0.3-3.7,2.2-3.4,4.4c0.3,2.1,2.2,3.7,4.4,3.4c2-0.2,3.4-1.9,3.4-3.9
						C981.7,119.8,979.8,118.1,977.5,118.2z"/>
					<path class="st4" d="M1057.3,97.5c-1.7-0.3-2.8-1.8-2.5-3.5s1.8-2.8,3.5-2.5c1.5,0.2,2.6,1.5,2.6,3
						C1060.7,96.3,1059.1,97.7,1057.3,97.5z"/>
					<path class="st0" d="M1057.3,92.3c1.2,0.3,2,1.4,1.7,2.6c-0.3,1.2-1.4,2-2.6,1.7c-1-0.2-1.7-1.1-1.8-2.2
						C1054.8,93.2,1056,92.2,1057.3,92.3 M1057.3,90.6c-2.1,0.3-3.7,2.2-3.4,4.4c0.3,2.1,2.2,3.7,4.4,3.4c2-0.2,3.4-1.9,3.4-3.9
						C1061.6,92.2,1059.6,90.5,1057.3,90.6z"/>
					<path class="st4" d="M1061,86.4c-1.7-0.3-2.8-1.8-2.5-3.5c0.3-1.7,1.8-2.8,3.5-2.5c1.5,0.2,2.6,1.5,2.6,3
						C1064.4,85.2,1062.8,86.5,1061,86.4z"/>
					<path class="st0" d="M1061,81.2c1.2,0.3,2,1.4,1.7,2.6c-0.3,1.2-1.4,2-2.6,1.7c-1-0.2-1.7-1.1-1.8-2.2
						C1058.5,82,1059.7,81.1,1061,81.2 M1061,79.5c-2.1,0.3-3.7,2.2-3.4,4.4c0.3,2.2,2.2,3.7,4.4,3.4c2-0.2,3.4-1.9,3.4-3.9
						C1065.3,81.1,1063.3,79.3,1061,79.5z"/>
					<path class="st4" d="M1086.7,53.6c-1.8,0.1-3.4-1.2-3.5-3c0.3-2,2.2-3.3,4.1-3c1.5,0.2,2.7,1.4,3,3
						C1090.1,52.4,1088.5,53.7,1086.7,53.6z"/>
					<path class="st0" d="M1086.7,48.4c1.3-0.1,2.5,0.8,2.7,2.2c-0.3,1.5-1.8,2.4-3.3,2.1c-1.1-0.2-1.9-1.1-2.1-2.1
						C1084.2,49.2,1085.3,48.3,1086.7,48.4 M1086.7,46.7c-2.3-0.1-4.2,1.6-4.4,3.9c0.3,2.4,2.5,4.2,5,3.8c2-0.3,3.6-1.8,3.8-3.8
						C1090.9,48.3,1089,46.5,1086.7,46.7z"/>
					<path class="st4" d="M1114.4,122.4c-1.7-0.3-2.8-1.8-2.5-3.5c0.3-1.7,1.8-2.8,3.5-2.5c1.5,0.2,2.6,1.5,2.6,3
						C1117.8,121.2,1116.2,122.5,1114.4,122.4z"/>
					<path class="st0" d="M1114.4,117.2c1.2,0.3,2,1.4,1.7,2.6c-0.3,1.2-1.4,2-2.6,1.7c-1-0.2-1.7-1.1-1.8-2.2
						C1111.9,118,1113.1,117,1114.4,117.2 M1114.4,115.5c-2.1,0.3-3.7,2.2-3.4,4.4c0.3,2.1,2.2,3.7,4.4,3.4c2-0.2,3.4-1.9,3.4-3.9
						C1118.6,117.1,1116.7,115.3,1114.4,115.5z"/>
					<path class="st4" d="M1091.1,160.7c-1.7-0.3-2.8-1.8-2.5-3.5c0.3-1.7,1.8-2.8,3.5-2.5c1.5,0.2,2.6,1.5,2.6,3
						C1094.5,159.5,1092.9,160.8,1091.1,160.7z"/>
					<path class="st0" d="M1091.1,155.5c1.2,0.3,2,1.4,1.7,2.6s-1.4,2-2.6,1.7c-1-0.2-1.7-1.1-1.8-2.2
						C1088.6,156.3,1089.8,155.3,1091.1,155.5 M1091.1,153.8c-2.1,0.3-3.7,2.2-3.4,4.4c0.3,2.1,2.2,3.7,4.4,3.4
						c2-0.2,3.4-1.9,3.4-3.9C1095.4,155.4,1093.4,153.6,1091.1,153.8z"/>
					<path class="st4" d="M958.3,158.6c-1.7-0.3-2.8-1.8-2.6-3.5c0.3-1.7,1.8-2.8,3.5-2.6c1.5,0.2,2.6,1.5,2.6,3.1
						C961.7,157.4,960.1,158.7,958.3,158.6z"/>
					<path class="st0" d="M958.3,153.4c1.2,0.3,2,1.4,1.7,2.6c-0.3,1.2-1.4,2-2.6,1.7c-1-0.2-1.7-1.1-1.8-2.2
						C955.8,154.2,956.9,153.2,958.3,153.4 M958.3,151.6c-2.1,0.3-3.7,2.2-3.4,4.4c0.3,2.1,2.2,3.7,4.4,3.4c2-0.2,3.4-1.9,3.4-3.9
						C962.5,153.2,960.6,151.5,958.3,151.6z"/>
					<path class="st4" d="M923.6,186.7c-1.7-0.3-2.8-1.8-2.5-3.5s1.8-2.8,3.5-2.5c1.5,0.2,2.6,1.5,2.6,3
						C927,185.5,925.4,186.8,923.6,186.7z"/>
					<path class="st0" d="M923.6,181.5c1.2,0.3,2,1.4,1.7,2.6s-1.4,2-2.6,1.7c-1-0.2-1.7-1.1-1.8-2.2
						C921.1,182.3,922.3,181.4,923.6,181.5 M923.6,179.8c-2.1,0.3-3.7,2.2-3.4,4.4c0.3,2.1,2.2,3.7,4.4,3.4c2-0.2,3.4-1.9,3.4-3.9
						C927.9,181.4,925.9,179.7,923.6,179.8z"/>
					<path class="st4" d="M964.1,236.5c-1.7-0.3-2.8-1.8-2.5-3.5s1.8-2.8,3.5-2.5c1.5,0.2,2.6,1.5,2.6,3
						C967.5,235.3,965.9,236.7,964.1,236.5z"/>
					<path class="st0" d="M964.1,231.3c1.2,0.3,2,1.4,1.7,2.6c-0.3,1.2-1.4,2-2.6,1.7c-1-0.2-1.7-1.1-1.8-2.2
						C961.6,232.2,962.8,231.2,964.1,231.3 M964.1,229.6c-2.1,0.3-3.7,2.2-3.4,4.4c0.3,2.1,2.2,3.7,4.4,3.4c2-0.2,3.4-1.9,3.4-3.9
						C968.4,231.2,966.4,229.5,964.1,229.6z"/>
					<path class="st4" d="M1062.3,197c-1.7-0.3-2.8-1.8-2.6-3.5c0.3-1.7,1.8-2.8,3.5-2.6c1.5,0.2,2.6,1.5,2.6,3.1
						C1065.7,195.8,1064.1,197.1,1062.3,197z"/>
					<path class="st0" d="M1062.3,191.8c1.2,0.3,2,1.4,1.7,2.6s-1.4,2-2.6,1.7c-1-0.2-1.7-1.1-1.8-2.2
						C1059.8,192.6,1060.9,191.7,1062.3,191.8 M1062.3,190.1c-2.1,0.3-3.7,2.2-3.4,4.4c0.3,2.1,2.2,3.7,4.4,3.4
						c2-0.2,3.4-1.9,3.4-3.9C1066.5,191.7,1064.6,189.9,1062.3,190.1z"/>
					<path class="st4" d="M1080,212.3c-1.7-0.3-2.8-1.8-2.5-3.5s1.8-2.8,3.5-2.5c1.5,0.2,2.6,1.5,2.6,3
						C1083.4,211,1081.8,212.4,1080,212.3z"/>
					<path class="st0" d="M1080,207.1c1.2,0.3,2,1.4,1.7,2.6s-1.4,2-2.6,1.7c-1-0.2-1.7-1.1-1.8-2.2
						C1077.5,207.9,1078.7,206.9,1080,207.1 M1080,205.3c-2.1,0.3-3.7,2.2-3.4,4.4c0.3,2.1,2.2,3.7,4.4,3.4c2-0.2,3.4-1.9,3.4-3.9
						C1084.3,206.9,1082.3,205.2,1080,205.3z"/>
					<path class="st4" d="M1192.2,218.2c-1.7-0.3-2.8-1.8-2.5-3.5s1.8-2.8,3.5-2.5c1.5,0.2,2.6,1.5,2.6,3
						C1195.6,217,1194,218.3,1192.2,218.2z"/>
					<path class="st0" d="M1192.2,213c1.2,0.3,2,1.4,1.7,2.6s-1.4,2-2.6,1.7c-1-0.2-1.8-1.1-1.8-2.2
						C1189.7,213.8,1190.9,212.9,1192.2,213 M1192.2,211.3c-2.1,0.3-3.7,2.2-3.4,4.4c0.3,2.1,2.2,3.7,4.4,3.4c2-0.2,3.4-1.9,3.4-3.9
						C1196.5,212.9,1194.5,211.2,1192.2,211.3z"/>
					<path class="st4" d="M1098.7,297c-1.7-0.3-2.8-1.8-2.5-3.5c0.3-1.7,1.8-2.8,3.5-2.5c1.5,0.2,2.6,1.5,2.6,3
						C1102.1,295.8,1100.5,297.1,1098.7,297z"/>
					<path class="st0" d="M1098.7,291.7c1.2,0.3,2,1.4,1.7,2.6s-1.4,2-2.6,1.7c-1-0.2-1.7-1.1-1.8-2.2
						C1096.2,292.6,1097.4,291.6,1098.7,291.7 M1098.7,290c-2.1,0.3-3.7,2.2-3.4,4.4c0.3,2.1,2.2,3.7,4.4,3.4c2-0.2,3.4-1.9,3.4-3.9
						C1103,291.6,1101,289.9,1098.7,290z"/>
					<path class="st4" d="M1030.1,307c-1.7-0.3-2.8-1.8-2.5-3.5c0.3-1.7,1.8-2.8,3.5-2.5c1.5,0.2,2.6,1.5,2.6,3
						C1033.5,305.8,1031.9,307.1,1030.1,307z"/>
					<path class="st0" d="M1030.1,301.8c1.2,0.3,2,1.4,1.7,2.6s-1.4,2-2.6,1.7c-1-0.2-1.7-1.1-1.8-2.2
						C1027.6,302.6,1028.8,301.6,1030.1,301.8 M1030.1,300.1c-2.1,0.3-3.7,2.2-3.4,4.4c0.3,2.1,2.2,3.7,4.4,3.4
						c2-0.2,3.4-1.9,3.4-3.9C1034.4,301.7,1032.4,299.9,1030.1,300.1z"/>
					<path class="st4" d="M1097.3,285c-1.7-0.3-2.8-1.8-2.6-3.5c0.3-1.7,1.8-2.8,3.5-2.6c1.5,0.2,2.6,1.5,2.6,3.1
						C1100.7,283.7,1099.1,285.1,1097.3,285z"/>
					<path class="st0" d="M1097.3,279.8c1.2,0.3,2,1.4,1.7,2.6s-1.4,2-2.6,1.7c-1-0.2-1.7-1.1-1.8-2.2
						C1094.8,280.6,1096,279.6,1097.3,279.8 M1097.3,278c-2.1,0.3-3.7,2.2-3.4,4.4c0.3,2.1,2.2,3.7,4.4,3.4c2-0.2,3.4-1.9,3.4-3.9
						C1101.6,279.6,1099.6,277.9,1097.3,278z"/>
					<path class="st4" d="M1041.7,316.3c-1.7-0.3-2.8-1.8-2.6-3.5c0.3-1.7,1.8-2.8,3.5-2.6c1.5,0.2,2.6,1.5,2.6,3.1
						C1045,315.1,1043.5,316.5,1041.7,316.3z"/>
					<path class="st0" d="M1041.7,311.1c1.2,0.3,2,1.4,1.7,2.6s-1.4,2-2.6,1.7c-1-0.2-1.7-1.1-1.8-2.2
						C1039.1,312,1040.3,311,1041.7,311.1 M1041.7,309.4c-2.1,0.3-3.7,2.2-3.4,4.4c0.3,2.1,2.2,3.7,4.4,3.4c2-0.2,3.4-1.9,3.4-3.9
						C1045.9,311,1043.9,309.3,1041.7,309.4z"/>
					<path class="st4" d="M980.9,327.5c-1.7-0.3-2.8-1.8-2.6-3.5c0.3-1.7,1.8-2.8,3.5-2.6c1.5,0.2,2.6,1.5,2.6,3.1
						C984.3,326.3,982.7,327.6,980.9,327.5z"/>
					<path class="st0" d="M980.9,322.3c1.2,0.3,2,1.4,1.7,2.6s-1.4,2-2.6,1.7c-1-0.2-1.7-1.1-1.8-2.2
						C978.4,323.1,979.5,322.2,980.9,322.3 M980.9,320.6c-2.1,0.3-3.7,2.2-3.4,4.4c0.3,2.1,2.2,3.7,4.4,3.4c2-0.2,3.4-1.9,3.4-3.9
						C985.1,322.2,983.2,320.5,980.9,320.6z"/>
					<path class="st4" d="M934.6,322.1c-1.7-0.3-2.8-1.8-2.5-3.5c0.3-1.7,1.8-2.8,3.5-2.5c1.5,0.2,2.6,1.5,2.6,3
						C938,320.9,936.4,322.2,934.6,322.1z"/>
					<path class="st0" d="M934.6,316.9c1.2,0.3,2,1.4,1.7,2.6c-0.3,1.2-1.4,2-2.6,1.7c-1-0.2-1.7-1.1-1.8-2.2
						C932.1,317.7,933.2,316.8,934.6,316.9 M934.6,315.2c-2.1,0.3-3.7,2.2-3.4,4.4c0.3,2.1,2.2,3.7,4.4,3.4c2-0.2,3.4-1.9,3.4-3.9
						C938.8,316.8,936.9,315,934.6,315.2z"/>
					<ellipse class="st4" cx="962.8" cy="332.3" rx="3.5" ry="3"/>
					<path class="st0" d="M962.8,330.1c1.2,0.3,2,1.4,1.7,2.6s-1.4,2-2.6,1.7c-1-0.2-1.8-1.1-1.8-2.2
						C960.3,330.9,961.5,330,962.8,330.1 M962.8,328.4c-2.1,0.3-3.7,2.2-3.4,4.4c0.3,2.1,2.2,3.7,4.4,3.4c2-0.2,3.4-1.9,3.4-3.9
						C967,330,965.1,328.3,962.8,328.4z"/>
					<path class="st4" d="M897.4,338.6c-1.7-0.3-2.8-1.8-2.6-3.5c0.3-1.7,1.8-2.8,3.5-2.6c1.5,0.2,2.6,1.5,2.6,3.1
						C900.8,337.4,899.2,338.7,897.4,338.6z"/>
					<path class="st0" d="M897.4,333.4c1.2,0.3,2,1.4,1.7,2.6c-0.3,1.2-1.4,2-2.6,1.7c-1-0.2-1.7-1.1-1.8-2.2
						C894.8,334.2,896,333.3,897.4,333.4 M897.4,331.7c-2.1,0.3-3.7,2.2-3.4,4.4c0.3,2.1,2.2,3.7,4.4,3.4c2-0.2,3.4-1.9,3.4-3.9
						C901.6,333.3,899.7,331.5,897.4,331.7z"/>
					<path class="st4" d="M951.1,435.8c-1.7-0.3-2.8-1.8-2.5-3.5s1.8-2.8,3.5-2.5c1.5,0.2,2.6,1.5,2.6,3
						C954.5,434.6,952.9,435.9,951.1,435.8z"/>
					<path class="st0" d="M951.1,430.6c1.2,0.3,2,1.4,1.7,2.6s-1.4,2-2.6,1.7c-1-0.2-1.7-1.1-1.8-2.2
						C948.6,431.4,949.8,430.4,951.1,430.6 M951.1,428.8c-2.1,0.3-3.7,2.2-3.4,4.4c0.3,2.1,2.2,3.7,4.4,3.4c2-0.2,3.4-1.9,3.4-3.9
						C955.4,430.4,953.4,428.7,951.1,428.8z"/>
					<path class="st4" d="M937.9,453.9c-1.7-0.3-2.8-1.8-2.5-3.5s1.8-2.8,3.5-2.5c1.5,0.2,2.6,1.5,2.6,3
						C941.3,452.7,939.7,454,937.9,453.9z"/>
					<path class="st0" d="M937.9,448.7c1.2,0.3,1.9,1.4,1.7,2.6c-0.3,1.2-1.4,1.9-2.6,1.7c-1-0.2-1.7-1.1-1.7-2.2
						C935.4,449.5,936.6,448.6,937.9,448.7 M937.9,447c-2.1,0.3-3.7,2.2-3.4,4.4c0.3,2.1,2.2,3.7,4.4,3.4c2-0.2,3.4-1.9,3.4-3.9
						C942.1,448.6,940.2,446.8,937.9,447z"/>
					<path class="st4" d="M965.6,486.6c-1.7-0.3-2.8-1.8-2.5-3.5s1.8-2.8,3.5-2.5c1.5,0.2,2.6,1.5,2.6,3
						C969,485.4,967.4,486.7,965.6,486.6z"/>
					<path class="st0" d="M965.6,481.4c1.2,0.3,2,1.4,1.7,2.6s-1.4,2-2.6,1.7c-1-0.2-1.8-1.1-1.7-2.2
						C963.1,482.2,964.3,481.3,965.6,481.4 M965.6,479.7c-2.1,0.3-3.7,2.2-3.4,4.4c0.3,2.1,2.2,3.7,4.4,3.4c2-0.2,3.4-1.9,3.4-3.9
						C969.9,481.3,967.9,479.5,965.6,479.7z"/>
					<ellipse class="st4" cx="911.1" cy="528.9" rx="3.5" ry="3"/>
					<path class="st0" d="M911.1,526.8c1.2,0.3,2,1.4,1.7,2.6s-1.4,2-2.6,1.7c-1-0.2-1.7-1.1-1.7-2.1
						C908.6,527.6,909.8,526.7,911.1,526.8 M911.1,525.1c-2.1,0.3-3.7,2.2-3.4,4.4c0.3,2.1,2.2,3.7,4.4,3.4c2-0.2,3.4-1.9,3.4-3.9
						C915.4,526.7,913.4,524.9,911.1,525.1L911.1,525.1z"/>
					<ellipse class="st4" cx="827.1" cy="516.8" rx="3.5" ry="3"/>
					<path class="st0" d="M827.1,514.7c1.2,0.3,2,1.4,1.7,2.6s-1.4,2-2.6,1.7c-1-0.2-1.7-1.1-1.8-2.2
						C824.6,515.5,825.8,514.5,827.1,514.7 M827.1,513c-2.1,0.3-3.7,2.2-3.4,4.4c0.3,2.1,2.2,3.7,4.4,3.4c2-0.2,3.4-1.9,3.4-3.9
						C831.4,514.5,829.4,512.8,827.1,513z"/>
					<path class="st4" d="M801.1,553.8c-1.7-0.3-2.8-1.8-2.5-3.5s1.8-2.8,3.5-2.5c1.5,0.2,2.6,1.5,2.6,3
						C804.5,552.6,802.9,553.9,801.1,553.8z"/>
					<path class="st0" d="M801.1,548.6c1.2,0.3,2,1.4,1.7,2.6s-1.4,2-2.6,1.7c-1-0.2-1.7-1.1-1.8-2.2
						C798.6,549.4,799.8,548.4,801.1,548.6 M801.1,546.9c-2.1,0.3-3.7,2.2-3.4,4.4c0.3,2.1,2.2,3.7,4.4,3.4c2-0.2,3.4-1.9,3.4-3.9
						C805.4,548.5,803.4,546.7,801.1,546.9z"/>
					<path class="st4" d="M894.6,604.1c-1.7-0.3-2.8-1.8-2.6-3.5c0.3-1.7,1.8-2.8,3.5-2.6c1.5,0.2,2.6,1.5,2.6,3.1
						C898,602.9,896.4,604.2,894.6,604.1z"/>
					<path class="st0" d="M894.6,598.9c1.2,0.3,2,1.4,1.7,2.6s-1.4,2-2.6,1.7c-1-0.2-1.7-1.1-1.8-2.2
						C892.1,599.7,893.3,598.8,894.6,598.9 M894.6,597.2c-2.1,0.3-3.7,2.2-3.4,4.4c0.3,2.2,2.2,3.7,4.4,3.4c2-0.2,3.4-1.9,3.4-3.9
						C898.8,598.8,896.9,597.1,894.6,597.2z"/>
					<path class="st4" d="M882.5,624.3c-1.7-0.3-2.8-1.8-2.5-3.5s1.8-2.8,3.5-2.5c1.5,0.2,2.6,1.5,2.6,3
						C885.9,623.1,884.3,624.5,882.5,624.3z"/>
					<path class="st0" d="M882.5,619.1c1.2,0.3,2,1.4,1.7,2.6c-0.3,1.2-1.4,2-2.6,1.7c-1-0.2-1.7-1.1-1.8-2.2
						C879.9,620,881.1,619,882.5,619.1 M882.5,617.4c-2.1,0.3-3.7,2.2-3.4,4.4c0.3,2.1,2.2,3.7,4.4,3.4c2-0.2,3.4-1.9,3.4-3.9
						C886.7,619,884.8,617.3,882.5,617.4z"/>
					<path class="st4" d="M866.9,669.7c-1.7-0.3-2.8-1.8-2.5-3.5s1.8-2.8,3.5-2.5c1.5,0.2,2.6,1.5,2.6,3
						C870.2,668.5,868.7,669.8,866.9,669.7z"/>
					<path class="st0" d="M866.9,664.5c1.2,0.3,2,1.4,1.7,2.6c-0.3,1.2-1.4,2-2.6,1.7c-1-0.2-1.8-1.1-1.7-2.2
						C864.3,665.3,865.5,664.3,866.9,664.5 M866.9,662.7c-2.1,0.3-3.7,2.2-3.4,4.4c0.3,2.1,2.2,3.7,4.4,3.4c2-0.2,3.4-1.9,3.4-3.9
						C871.1,664.3,869.1,662.6,866.9,662.7z"/>
					<path class="st4" d="M872.6,710.3c-1.7-0.3-2.8-1.8-2.5-3.5s1.8-2.8,3.5-2.5c1.5,0.2,2.6,1.5,2.6,3
						C875.9,709.1,874.4,710.4,872.6,710.3z"/>
					<path class="st0" d="M872.6,705.1c1.2,0.3,2,1.4,1.7,2.6c-0.3,1.2-1.4,2-2.6,1.7c-1-0.2-1.8-1.1-1.8-2.2
						C870,705.9,871.2,705,872.6,705.1 M872.6,703.4c-2.1,0.3-3.7,2.2-3.4,4.4c0.3,2.1,2.2,3.7,4.4,3.4c2-0.2,3.4-1.9,3.4-3.9
						C876.8,705,874.8,703.2,872.6,703.4z"/>
					<path class="st4" d="M894.9,710.8c-1.7-0.3-2.8-1.8-2.5-3.5s1.8-2.8,3.5-2.5c1.5,0.2,2.6,1.5,2.6,3
						C898.3,709.6,896.7,710.9,894.9,710.8z"/>
					<path class="st0" d="M894.9,705.6c1.2,0.3,2,1.4,1.7,2.6c-0.3,1.2-1.4,2-2.6,1.7c-1-0.2-1.7-1.1-1.8-2.2
						C892.4,706.4,893.5,705.4,894.9,705.6 M894.9,703.9c-2.1,0.3-3.7,2.2-3.4,4.4c0.3,2.1,2.2,3.7,4.4,3.4c2-0.2,3.4-1.9,3.4-3.9
						C899.1,705.5,897.2,703.7,894.9,703.9z"/>
					<path class="st4" d="M929.8,671.1c-1.7-0.3-2.8-1.8-2.5-3.5s1.8-2.8,3.5-2.5c1.5,0.2,2.6,1.5,2.6,3
						C933.2,669.9,931.6,671.2,929.8,671.1z"/>
					<path class="st0" d="M929.8,666c1.2,0.3,2,1.4,1.7,2.6c-0.3,1.2-1.4,2-2.6,1.7c-1-0.2-1.7-1.1-1.8-2.2
						C927.3,666.8,928.5,665.8,929.8,666 M929.8,664.2c-2.1,0.3-3.7,2.2-3.4,4.4c0.3,2.1,2.2,3.7,4.4,3.4c2-0.2,3.4-1.9,3.4-3.9
						C934.1,665.8,932.1,664.1,929.8,664.2z"/>
					<path class="st4" d="M946,672.3c-1.7-0.3-2.8-1.8-2.5-3.5s1.8-2.8,3.5-2.5c1.5,0.2,2.6,1.5,2.6,3
						C949.4,671.1,947.8,672.4,946,672.3z"/>
					<path class="st0" d="M946,667.1c1.2,0.3,2,1.4,1.7,2.6c-0.3,1.2-1.4,2-2.6,1.7c-1-0.2-1.7-1.1-1.8-2.2
						C943.5,667.9,944.7,667,946,667.1 M946,665.4c-2.1,0.3-3.7,2.2-3.4,4.4c0.3,2.1,2.2,3.7,4.4,3.4c2-0.2,3.4-1.9,3.4-3.9
						C950.3,667,948.3,665.3,946,665.4z"/>
					<path class="st4" d="M980.9,628.8c-1.7-0.3-2.8-1.8-2.5-3.5s1.8-2.8,3.5-2.5c1.5,0.2,2.6,1.5,2.6,3
						C984.3,627.6,982.7,628.9,980.9,628.8z"/>
					<path class="st0" d="M980.9,623.6c1.2,0.3,2,1.4,1.7,2.6c-0.3,1.2-1.4,2-2.6,1.7c-1-0.2-1.7-1.1-1.8-2.2
						C978.4,624.4,979.6,623.5,980.9,623.6 M980.9,621.9c-2.1,0.3-3.7,2.2-3.4,4.4c0.3,2.1,2.2,3.7,4.4,3.4c2-0.2,3.4-1.9,3.4-3.9
						C985.2,623.5,983.2,621.8,980.9,621.9z"/>
					<path class="st4" d="M1024.1,644.2c-1.7-0.3-2.8-1.8-2.5-3.5s1.8-2.8,3.5-2.5c1.5,0.2,2.6,1.5,2.6,3
						C1027.5,643,1025.9,644.3,1024.1,644.2z"/>
					<path class="st0" d="M1024.1,639c1.2,0.3,2,1.4,1.7,2.6c-0.3,1.2-1.4,2-2.6,1.7c-1-0.2-1.7-1.1-1.8-2.2
						C1021.6,639.8,1022.7,638.8,1024.1,639 M1024.1,637.2c-2.1,0.3-3.7,2.2-3.4,4.4c0.3,2.1,2.2,3.7,4.4,3.4c2-0.2,3.4-1.9,3.4-3.9
						C1028.3,638.8,1026.4,637.1,1024.1,637.2z"/>
					<path class="st4" d="M1000.4,719.6c-1.7-0.3-2.8-1.8-2.5-3.5s1.8-2.8,3.5-2.5c1.5,0.2,2.6,1.5,2.6,3
						C1003.7,718.4,1002.2,719.7,1000.4,719.6z"/>
					<path class="st0" d="M1000.4,714.4c1.2,0.3,2,1.4,1.7,2.6c-0.3,1.2-1.4,2-2.6,1.7c-1-0.2-1.7-1.1-1.8-2.2
						C997.8,715.2,999,714.3,1000.4,714.4 M1000.4,712.7c-2.1,0.3-3.7,2.2-3.4,4.4s2.2,3.7,4.4,3.4c2-0.2,3.4-1.9,3.4-3.9
						C1004.6,714.3,1002.6,712.5,1000.4,712.7z"/>
					<path class="st4" d="M1052.9,725.4c-1.7-0.3-2.8-1.8-2.6-3.5c0.3-1.7,1.8-2.8,3.5-2.6c1.5,0.2,2.6,1.5,2.6,3.1
						C1056.3,724.2,1054.7,725.5,1052.9,725.4z"/>
					<path class="st0" d="M1052.9,720.2c1.2,0.3,2,1.4,1.7,2.6c-0.3,1.2-1.4,2-2.6,1.7c-1-0.2-1.7-1.1-1.8-2.2
						C1050.4,721.1,1051.6,720.1,1052.9,720.2 M1052.9,718.5c-2.1,0.3-3.7,2.2-3.4,4.4c0.3,2.1,2.2,3.7,4.4,3.4
						c2-0.2,3.4-1.9,3.4-3.9C1057.1,720.1,1055.2,718.4,1052.9,718.5z"/>
					<path class="st4" d="M1086.5,729c-1.7-0.3-2.8-1.8-2.5-3.5s1.8-2.8,3.5-2.5c1.5,0.2,2.6,1.5,2.6,3
						C1089.9,727.8,1088.3,729.1,1086.5,729z"/>
					<path class="st0" d="M1086.5,723.8c1.2,0.3,2,1.4,1.7,2.6c-0.3,1.2-1.4,2-2.6,1.7c-1-0.2-1.7-1.1-1.8-2.2
						C1084,724.6,1085.1,723.7,1086.5,723.8 M1086.5,722.1c-2.1,0.3-3.7,2.2-3.4,4.4c0.3,2.1,2.2,3.7,4.4,3.4c2-0.2,3.4-1.9,3.4-3.9
						C1090.7,723.7,1088.8,721.9,1086.5,722.1z"/>
					<path class="st4" d="M1056.4,687.9c-1.7-0.3-2.8-1.8-2.5-3.5s1.8-2.8,3.5-2.5c1.5,0.2,2.6,1.5,2.6,3
						C1059.8,686.7,1058.2,688,1056.4,687.9z"/>
					<path class="st0" d="M1056.4,682.7c1.2,0.3,1.9,1.4,1.7,2.6c-0.3,1.2-1.4,1.9-2.6,1.7c-1-0.2-1.7-1.1-1.7-2.2
						C1053.9,683.5,1055,682.5,1056.4,682.7 M1056.4,681c-2.1,0.3-3.7,2.2-3.4,4.4c0.3,2.1,2.2,3.7,4.4,3.4c2-0.2,3.4-1.9,3.4-3.9
						C1060.6,682.5,1058.7,680.8,1056.4,681z"/>
					<path class="st4" d="M1145.2,686.7c-1.7-0.3-2.8-1.8-2.6-3.5c0.3-1.7,1.8-2.8,3.5-2.6c1.5,0.2,2.6,1.5,2.6,3.1
						C1148.6,685.5,1147,686.9,1145.2,686.7z"/>
					<path class="st0" d="M1145.2,681.5c1.2,0.3,2,1.4,1.7,2.6c-0.3,1.2-1.4,2-2.6,1.7c-1-0.2-1.7-1.1-1.8-2.2
						C1142.7,682.4,1143.9,681.4,1145.2,681.5 M1145.2,679.8c-2.1,0.3-3.7,2.2-3.4,4.4c0.3,2.1,2.2,3.7,4.4,3.4
						c2-0.2,3.4-1.9,3.4-3.9C1149.5,681.4,1147.5,679.7,1145.2,679.8z"/>
					<path class="st4" d="M902.4,327.6c-1.7-0.3-2.8-1.8-2.5-3.5c0.3-1.7,1.8-2.8,3.5-2.5c1.5,0.2,2.6,1.5,2.6,3
						C905.7,326.4,904.2,327.7,902.4,327.6z"/>
					<path class="st0" d="M902.4,322.4c1.2,0.3,2,1.4,1.7,2.6c-0.3,1.2-1.4,2-2.6,1.7c-1-0.2-1.7-1.1-1.8-2.2
						C899.8,323.2,901,322.2,902.4,322.4 M902.4,320.7c-2.1,0.3-3.7,2.2-3.4,4.4c0.3,2.1,2.2,3.7,4.4,3.4c2-0.2,3.4-1.9,3.4-3.9
						C906.6,322.3,904.6,320.5,902.4,320.7z"/>
					<path class="st4" d="M1135.7,276c-1.7-0.3-2.8-1.8-2.6-3.5c0.3-1.7,1.8-2.8,3.5-2.6c1.5,0.2,2.6,1.5,2.6,3.1
						C1139,274.8,1137.5,276.1,1135.7,276z"/>
					<path class="st0" d="M1135.7,270.7c1.2,0.3,2,1.4,1.7,2.6s-1.4,2-2.6,1.7c-1-0.2-1.7-1.1-1.8-2.2
						C1133.1,271.6,1134.3,270.6,1135.7,270.7 M1135.7,269c-2.1,0.3-3.7,2.2-3.4,4.4c0.3,2.1,2.2,3.7,4.4,3.4c2-0.2,3.4-1.9,3.4-3.9
						C1139.9,270.6,1137.9,268.9,1135.7,269z"/>
					<path class="st4" d="M1170.6,273.2c-1.7-0.3-2.8-1.8-2.5-3.5c0.3-1.7,1.8-2.8,3.5-2.5c1.5,0.2,2.6,1.5,2.6,3
						C1174,272,1172.4,273.3,1170.6,273.2z"/>
					<path class="st0" d="M1170.6,268c1.2,0.3,2,1.4,1.7,2.6c-0.3,1.2-1.4,2-2.6,1.7c-1-0.2-1.7-1.1-1.8-2.2
						C1168.1,268.8,1169.3,267.8,1170.6,268 M1170.6,266.2c-2.1,0.3-3.7,2.2-3.4,4.4c0.3,2.1,2.2,3.7,4.4,3.4c2-0.2,3.4-1.9,3.4-3.9
						C1174.8,267.8,1172.9,266.1,1170.6,266.2z"/>
					<path class="st4" d="M1240.1,275c-1.7-0.3-2.8-1.8-2.5-3.5c0.3-1.7,1.8-2.8,3.5-2.5c1.5,0.2,2.6,1.5,2.6,3
						C1243.5,273.8,1241.9,275.1,1240.1,275z"/>
					<path class="st0" d="M1240.1,269.7c1.2,0.3,2,1.4,1.7,2.6s-1.4,2-2.6,1.7c-1-0.2-1.7-1.1-1.8-2.2
						C1237.6,270.6,1238.7,269.6,1240.1,269.7 M1240.1,268c-2.1,0.3-3.7,2.2-3.4,4.4c0.3,2.1,2.2,3.7,4.4,3.4c2-0.2,3.4-1.9,3.4-3.9
						C1244.3,269.6,1242.4,267.9,1240.1,268z"/>
					<path class="st4" d="M1236.6,308c-1.7-0.3-2.8-1.8-2.6-3.5c0.3-1.7,1.8-2.8,3.5-2.6c1.5,0.2,2.6,1.5,2.6,3.1
						C1240,306.7,1238.4,308.1,1236.6,308z"/>
					<path class="st0" d="M1236.6,302.8c1.2,0.3,2,1.4,1.7,2.6s-1.4,2-2.6,1.7c-1-0.2-1.7-1.1-1.8-2.2
						C1234.1,303.6,1235.3,302.6,1236.6,302.8 M1236.6,301c-2.1,0.3-3.7,2.3-3.4,4.4c0.3,2.1,2.3,3.7,4.4,3.4
						c1.9-0.3,3.4-1.9,3.4-3.9C1240.9,302.7,1238.9,300.9,1236.6,301L1236.6,301z"/>
					<path class="st4" d="M1261,308c-1.7-0.3-2.8-1.8-2.6-3.5c0.3-1.7,1.8-2.8,3.5-2.6c1.5,0.2,2.6,1.5,2.6,3.1
						C1264.4,306.8,1262.8,308.1,1261,308z"/>
					<path class="st0" d="M1261,302.8c1.2,0.3,2,1.4,1.7,2.6s-1.4,2-2.6,1.7c-1-0.2-1.7-1.1-1.8-2.2
						C1258.5,303.6,1259.7,302.6,1261,302.8 M1261,301c-2.1,0.3-3.7,2.2-3.4,4.4c0.3,2.1,2.2,3.7,4.4,3.4c2-0.2,3.4-1.9,3.4-3.9
						C1265.3,302.6,1263.3,300.9,1261,301z"/>
					<path class="st4" d="M1313.2,306c-1.7-0.3-2.8-1.8-2.5-3.5c0.3-1.7,1.8-2.8,3.5-2.5c1.5,0.2,2.6,1.5,2.6,3
						C1316.5,304.8,1315,306.1,1313.2,306z"/>
					<path class="st0" d="M1313.2,300.8c1.2,0.3,2,1.4,1.7,2.6s-1.4,2-2.6,1.7c-1-0.2-1.7-1.1-1.8-2.2
						C1310.6,301.7,1311.8,300.7,1313.2,300.8 M1313.2,299.1c-2.1,0.3-3.7,2.2-3.4,4.4c0.3,2.1,2.2,3.7,4.4,3.4
						c2-0.2,3.4-1.9,3.4-3.9C1317.4,300.7,1315.4,299,1313.2,299.1z"/>
					<path class="st4" d="M1257,345.2c-1.7-0.3-2.8-1.8-2.5-3.5c0.3-1.7,1.8-2.8,3.5-2.5c1.5,0.2,2.6,1.5,2.6,3
						C1260.4,344,1258.8,345.3,1257,345.2z"/>
					<path class="st0" d="M1257,340c1.2,0.3,2,1.4,1.7,2.6c-0.3,1.2-1.4,2-2.6,1.7c-1-0.2-1.7-1.1-1.8-2.2
						C1254.4,340.8,1255.6,339.8,1257,340 M1257,338.2c-2.1,0.3-3.7,2.2-3.4,4.4c0.3,2.1,2.2,3.7,4.4,3.4c2-0.2,3.4-1.9,3.4-3.9
						C1261.2,339.8,1259.3,338.1,1257,338.2z"/>
					<path class="st4" d="M1156.4,375.2c-1.7-0.3-2.8-1.8-2.5-3.5s1.8-2.8,3.5-2.5c1.5,0.2,2.6,1.5,2.6,3
						C1159.7,374,1158.2,375.3,1156.4,375.2z"/>
					<path class="st0" d="M1156.4,370c1.2,0.3,2,1.4,1.7,2.6s-1.4,2-2.6,1.7c-1-0.2-1.7-1.1-1.8-2.2
						C1153.8,370.8,1155,369.9,1156.4,370 M1156.4,368.3c-2.1,0.3-3.7,2.2-3.4,4.4c0.3,2.1,2.2,3.7,4.4,3.4c2-0.2,3.4-1.9,3.4-3.9
						C1160.6,369.9,1158.6,368.2,1156.4,368.3z"/>
					<path class="st4" d="M1173.2,417c-1.7-0.3-2.8-1.8-2.5-3.5s1.8-2.8,3.5-2.5c1.5,0.2,2.6,1.5,2.6,3
						C1176.5,415.8,1175,417.1,1173.2,417z"/>
					<path class="st0" d="M1173.2,411.8c1.2,0.3,2,1.4,1.7,2.6s-1.4,2-2.6,1.7c-1-0.2-1.7-1.1-1.8-2.2
						C1170.6,412.6,1171.8,411.6,1173.2,411.8 M1173.2,410.1c-2.1,0.3-3.7,2.2-3.4,4.4c0.3,2.1,2.2,3.7,4.4,3.4
						c2-0.2,3.4-1.9,3.4-3.9C1177.4,411.7,1175.4,409.9,1173.2,410.1z"/>
					<path class="st4" d="M1203.3,424.1c-1.7-0.3-2.8-1.8-2.5-3.5s1.8-2.8,3.5-2.5c1.5,0.2,2.6,1.5,2.6,3
						C1206.6,422.9,1205.1,424.2,1203.3,424.1z"/>
					<path class="st0" d="M1203.3,419c1.2,0.3,2,1.4,1.7,2.6s-1.4,2-2.6,1.7c-1-0.2-1.7-1.1-1.8-2.2
						C1200.7,419.8,1201.9,418.8,1203.3,419 M1203.3,417.2c-2.1,0.3-3.7,2.2-3.4,4.4c0.3,2.1,2.2,3.7,4.4,3.4c2-0.2,3.4-1.9,3.4-3.9
						C1207.5,418.8,1205.5,417.1,1203.3,417.2z"/>
					<path class="st4" d="M1217.2,510.7c-1.7-0.3-2.8-1.8-2.5-3.5s1.8-2.8,3.5-2.5c1.5,0.2,2.6,1.5,2.6,3
						C1220.6,509.5,1219,510.8,1217.2,510.7z"/>
					<path class="st0" d="M1217.2,505.5c1.2,0.3,2,1.4,1.7,2.6s-1.4,2-2.6,1.7c-1-0.2-1.8-1.1-1.8-2.2
						C1214.7,506.3,1215.9,505.4,1217.2,505.5 M1217.2,503.8c-2.1,0.3-3.7,2.2-3.4,4.4c0.3,2.1,2.2,3.7,4.4,3.4
						c2-0.2,3.4-1.9,3.4-3.9C1221.5,505.4,1219.5,503.7,1217.2,503.8z"/>
					<path class="st4" d="M1117,510.3c-1.7-0.3-2.8-1.8-2.6-3.5c0.3-1.7,1.8-2.8,3.5-2.6c1.5,0.2,2.6,1.5,2.6,3.1
						C1120.4,509.1,1118.8,510.4,1117,510.3z"/>
					<path class="st0" d="M1117,505.1c1.2,0.3,2,1.4,1.7,2.6s-1.4,2-2.6,1.7c-1-0.2-1.7-1.1-1.8-2.2
						C1114.5,505.9,1115.7,505,1117,505.1 M1117,503.4c-2.1,0.3-3.7,2.2-3.4,4.4c0.3,2.1,2.2,3.7,4.4,3.4c2-0.2,3.4-1.9,3.4-3.9
						C1121.3,505,1119.3,503.2,1117,503.4z"/>
					<path class="st4" d="M1139,544.7c-1.7-0.3-2.8-1.8-2.5-3.5s1.8-2.8,3.5-2.5c1.5,0.2,2.6,1.5,2.6,3
						C1142.4,543.5,1140.8,544.9,1139,544.7z"/>
					<path class="st0" d="M1139,539.5c1.2,0.3,2,1.4,1.7,2.6s-1.4,2-2.6,1.7c-1-0.2-1.8-1.1-1.8-2.2
						C1136.5,540.4,1137.7,539.4,1139,539.5 M1139,537.8c-2.1,0.3-3.7,2.2-3.4,4.4c0.3,2.1,2.2,3.7,4.4,3.4c2-0.2,3.4-1.9,3.4-3.9
						C1143.3,539.4,1141.3,537.7,1139,537.8z"/>
					<path class="st4" d="M1157.5,536.8c-1.7-0.3-2.8-1.8-2.5-3.5s1.8-2.8,3.5-2.5c1.5,0.2,2.6,1.5,2.6,3
						C1160.9,535.6,1159.3,537,1157.5,536.8z"/>
					<path class="st0" d="M1157.5,531.6c1.2,0.3,2,1.4,1.7,2.6s-1.4,2-2.6,1.7c-1-0.2-1.7-1.1-1.8-2.2
						C1155,532.5,1156.2,531.5,1157.5,531.6 M1157.5,529.9c-2.1,0.3-3.7,2.2-3.4,4.4c0.3,2.1,2.2,3.7,4.4,3.4c2-0.2,3.4-1.9,3.4-3.9
						C1161.8,531.5,1159.8,529.8,1157.5,529.9z"/>
					<path class="st4" d="M1173.7,546.5c-1.7-0.3-2.8-1.8-2.6-3.5c0.3-1.7,1.8-2.8,3.5-2.6c1.5,0.2,2.6,1.5,2.6,3.1
						C1177.1,545.3,1175.5,546.6,1173.7,546.5z"/>
					<path class="st0" d="M1173.7,541.3c1.2,0.3,2,1.4,1.7,2.6s-1.4,2-2.6,1.7c-1-0.2-1.7-1.1-1.8-2.2
						C1171.2,542.1,1172.4,541.1,1173.7,541.3 M1173.7,539.5c-2.1,0.3-3.7,2.2-3.4,4.4c0.3,2.1,2.2,3.7,4.4,3.4
						c2-0.2,3.4-1.9,3.4-3.9C1178,541.1,1176,539.4,1173.7,539.5z"/>
					<path class="st4" d="M1240.6,605.2c-1.7-0.3-2.8-1.8-2.5-3.5s1.8-2.8,3.5-2.5c1.5,0.2,2.6,1.5,2.6,3
						C1243.9,604,1242.4,605.4,1240.6,605.2z"/>
					<path class="st0" d="M1240.6,600c1.2,0.3,2,1.4,1.7,2.6s-1.4,2-2.6,1.7c-1-0.2-1.8-1.1-1.8-2.2
						C1238,600.9,1239.2,599.9,1240.6,600 M1240.6,598.3c-2.1,0.3-3.7,2.2-3.4,4.4c0.3,2.1,2.2,3.7,4.4,3.4c2-0.2,3.4-1.9,3.4-3.9
						C1244.8,599.9,1242.8,598.2,1240.6,598.3z"/>
					<path class="st4" d="M1229.3,648.5c-1.7-0.3-2.8-1.8-2.6-3.5c0.3-1.7,1.8-2.8,3.5-2.6c1.5,0.2,2.6,1.5,2.6,3.1
						C1232.7,647.3,1231.1,648.6,1229.3,648.5z"/>
					<path class="st0" d="M1229.3,643.3c1.2,0.3,2,1.4,1.7,2.6c-0.3,1.2-1.4,2-2.6,1.7c-1-0.2-1.7-1.1-1.8-2.2
						C1226.8,644.2,1228,643.2,1229.3,643.3 M1229.3,641.6c-2.1,0.3-3.7,2.2-3.4,4.4c0.3,2.1,2.2,3.7,4.4,3.4c2-0.2,3.4-1.9,3.4-3.9
						C1233.6,643.2,1231.6,641.5,1229.3,641.6z"/>
					<path class="st4" d="M1267.8,631.7c-1.7-0.3-2.8-1.8-2.6-3.5c0.3-1.7,1.8-2.8,3.5-2.6c1.5,0.2,2.6,1.5,2.6,3.1
						C1271.2,630.5,1269.6,631.8,1267.8,631.7z"/>
					<path class="st0" d="M1267.8,626.5c1.2,0.3,2,1.4,1.7,2.6c-0.3,1.2-1.4,2-2.6,1.7c-1-0.2-1.7-1.1-1.8-2.2
						C1265.2,627.3,1266.4,626.4,1267.8,626.5 M1267.8,624.8c-2.1,0.3-3.7,2.2-3.4,4.4c0.3,2.1,2.2,3.7,4.4,3.4
						c2-0.2,3.4-1.9,3.4-3.9C1272,626.4,1270.1,624.7,1267.8,624.8z"/>
					<path class="st4" d="M1296.6,612.3c-1.7-0.3-2.8-1.8-2.5-3.5s1.8-2.8,3.5-2.5c1.5,0.2,2.6,1.5,2.6,3
						C1300,611.1,1298.4,612.4,1296.6,612.3z"/>
					<path class="st0" d="M1296.6,607.1c1.2,0.3,2,1.4,1.7,2.6s-1.4,2-2.6,1.7c-1-0.2-1.8-1.1-1.8-2.2
						C1294.1,607.9,1295.3,607,1296.6,607.1 M1296.6,605.4c-2.1,0.3-3.7,2.2-3.4,4.4c0.3,2.1,2.2,3.7,4.4,3.4c2-0.2,3.4-1.9,3.4-3.9
						C1300.8,607,1298.9,605.2,1296.6,605.4z"/>
					<path class="st4" d="M1359.6,617c-1.7-0.3-2.8-1.8-2.6-3.5c0.3-1.7,1.8-2.8,3.5-2.6c1.5,0.2,2.6,1.5,2.6,3.1
						C1363,615.7,1361.4,617.1,1359.6,617z"/>
					<path class="st0" d="M1359.6,611.8c1.2,0.3,2,1.4,1.7,2.6c-0.3,1.2-1.4,2-2.6,1.7c-1-0.2-1.7-1.1-1.8-2.2
						C1357.1,612.6,1358.3,611.6,1359.6,611.8 M1359.6,610c-2.1,0.3-3.7,2.2-3.4,4.4c0.3,2.1,2.2,3.7,4.4,3.4c2-0.2,3.4-1.9,3.4-3.9
						C1363.9,611.7,1361.9,609.9,1359.6,610L1359.6,610z"/>
					<path class="st4" d="M1435.5,627.3c-1.7-0.3-2.8-1.8-2.6-3.5c0.3-1.7,1.8-2.8,3.5-2.6c1.5,0.2,2.6,1.5,2.6,3.1
						C1438.8,626.1,1437.3,627.5,1435.5,627.3z"/>
					<path class="st0" d="M1435.5,622.1c1.2,0.3,2,1.4,1.7,2.6c-0.3,1.2-1.4,2-2.6,1.7c-1-0.2-1.7-1.1-1.8-2.2
						C1432.9,623,1434.1,622,1435.5,622.1 M1435.5,620.4c-2.1,0.3-3.7,2.2-3.4,4.4c0.3,2.1,2.2,3.7,4.4,3.4c2-0.2,3.4-1.9,3.4-3.9
						C1439.7,622,1437.7,620.3,1435.5,620.4z"/>
					<path class="st4" d="M1491.1,614.2c-1.7-0.3-2.8-1.8-2.5-3.5s1.8-2.8,3.5-2.5c1.5,0.2,2.6,1.5,2.6,3
						C1494.5,613,1492.9,614.3,1491.1,614.2z"/>
					<path class="st0" d="M1491.1,609c1.2,0.3,2,1.4,1.7,2.6s-1.4,2-2.6,1.7c-1-0.2-1.7-1.1-1.8-2.2
						C1488.6,609.8,1489.7,608.9,1491.1,609 M1491.1,607.3c-2.1,0.3-3.7,2.2-3.4,4.4c0.3,2.1,2.2,3.7,4.4,3.4c2-0.2,3.4-1.9,3.4-3.9
						C1495.3,608.9,1493.4,607.2,1491.1,607.3z"/>
					<path class="st4" d="M1523.5,634.1c-1.7-0.3-2.8-1.8-2.5-3.5s1.8-2.8,3.5-2.5c1.5,0.2,2.6,1.5,2.6,3
						C1526.9,632.9,1525.3,634.2,1523.5,634.1z"/>
					<path class="st0" d="M1523.5,628.9c1.2,0.3,2,1.4,1.7,2.6c-0.3,1.2-1.4,2-2.6,1.7c-1-0.2-1.7-1.1-1.8-2.2
						C1521,629.7,1522.2,628.7,1523.5,628.9 M1523.5,627.2c-2.1,0.3-3.7,2.2-3.4,4.4c0.3,2.1,2.2,3.7,4.4,3.4c2-0.2,3.4-1.9,3.4-3.9
						C1527.7,628.8,1525.8,627,1523.5,627.2z"/>
					<path class="st4" d="M1472.9,646.3c-1.7-0.3-2.8-1.8-2.5-3.5s1.8-2.8,3.5-2.5c1.5,0.2,2.6,1.5,2.6,3
						C1476.3,645.1,1474.7,646.5,1472.9,646.3z"/>
					<path class="st0" d="M1472.9,641.1c1.2,0.3,2,1.4,1.7,2.6c-0.3,1.2-1.4,2-2.6,1.7c-1-0.2-1.7-1.1-1.8-2.2
						C1470.4,642,1471.5,641,1472.9,641.1 M1472.9,639.4c-2.1,0.3-3.7,2.2-3.4,4.4c0.3,2.1,2.2,3.7,4.4,3.4c2-0.2,3.4-1.9,3.4-3.9
						C1477.1,641,1475.2,639.3,1472.9,639.4z"/>
					<path class="st4" d="M1449.3,672.6c-1.7-0.3-2.8-1.8-2.5-3.5s1.8-2.8,3.5-2.5c1.5,0.2,2.6,1.5,2.6,3
						C1452.7,671.4,1451.1,672.8,1449.3,672.6z"/>
					<path class="st0" d="M1449.3,667.4c1.2,0.3,2,1.4,1.7,2.6c-0.3,1.2-1.4,2-2.6,1.7c-1-0.2-1.7-1.1-1.8-2.2
						C1446.8,668.3,1448,667.3,1449.3,667.4 M1449.3,665.7c-2.1,0.3-3.7,2.2-3.4,4.4c0.3,2.1,2.2,3.7,4.4,3.4c2-0.2,3.4-1.9,3.4-3.9
						C1453.6,667.3,1451.6,665.6,1449.3,665.7z"/>
					<path class="st4" d="M1473.2,694.5c-1.7-0.3-2.8-1.8-2.5-3.5s1.8-2.8,3.5-2.5c1.5,0.2,2.6,1.5,2.6,3
						C1476.6,693.3,1475,694.6,1473.2,694.5z"/>
					<path class="st0" d="M1473.2,689.3c1.2,0.3,2,1.4,1.7,2.6c-0.3,1.2-1.4,2-2.6,1.7c-1-0.2-1.7-1.1-1.8-2.2
						C1470.7,690.1,1471.9,689.2,1473.2,689.3 M1473.2,687.6c-2.1,0.3-3.7,2.2-3.4,4.4c0.3,2.1,2.2,3.7,4.4,3.4
						c2-0.2,3.4-1.9,3.4-3.9C1477.5,689.2,1475.5,687.4,1473.2,687.6z"/>
					<path class="st4" d="M1476.1,717c-1.7-0.3-2.8-1.8-2.5-3.5s1.8-2.8,3.5-2.5c1.5,0.2,2.6,1.5,2.6,3
						C1479.5,715.7,1477.9,717.1,1476.1,717z"/>
					<path class="st0" d="M1476.1,711.8c1.2,0.3,2,1.4,1.7,2.6c-0.3,1.2-1.4,2-2.6,1.7c-1-0.2-1.7-1.1-1.8-2.2
						C1473.6,712.6,1474.8,711.6,1476.1,711.8 M1476.1,710c-2.1,0.3-3.7,2.2-3.4,4.4c0.3,2.1,2.2,3.7,4.4,3.4c2-0.2,3.4-1.9,3.4-3.9
						C1480.3,711.6,1478.4,709.9,1476.1,710z"/>
					<path class="st4" d="M1495.3,711.7c-1.7-0.3-2.8-1.8-2.5-3.5s1.8-2.8,3.5-2.5c1.5,0.2,2.6,1.5,2.6,3
						C1498.7,710.5,1497.1,711.8,1495.3,711.7z"/>
					<path class="st0" d="M1495.3,706.5c1.2,0.3,2,1.4,1.7,2.6c-0.3,1.2-1.4,2-2.6,1.7c-1-0.2-1.7-1.1-1.8-2.2
						C1492.8,707.3,1494,706.4,1495.3,706.5 M1495.3,704.8c-2.1,0.3-3.7,2.2-3.4,4.4c0.3,2.1,2.2,3.7,4.4,3.4c2-0.2,3.4-1.9,3.4-3.9
						C1499.5,706.4,1497.6,704.7,1495.3,704.8z"/>
					<path class="st4" d="M1518.8,661.3c-1.7-0.3-2.8-1.8-2.5-3.5s1.8-2.8,3.5-2.5c1.5,0.2,2.6,1.5,2.6,3
						C1522.2,660,1520.6,661.4,1518.8,661.3z"/>
					<path class="st0" d="M1518.8,656.1c1.2,0.3,2,1.4,1.7,2.6c-0.3,1.2-1.4,2-2.6,1.7c-1-0.2-1.7-1.1-1.8-2.2
						C1516.3,656.9,1517.5,655.9,1518.8,656.1 M1518.8,654.3c-2.1,0.3-3.7,2.2-3.4,4.4c0.3,2.1,2.2,3.7,4.4,3.4
						c2-0.2,3.4-1.9,3.4-3.9C1523,655.9,1521.1,654.2,1518.8,654.3z"/>
					<path class="st4" d="M1331,235.7c-1.7-0.3-2.8-1.8-2.6-3.5c0.3-1.7,1.8-2.8,3.5-2.6c1.5,0.2,2.6,1.5,2.6,3.1
						C1334.4,234.5,1332.8,235.8,1331,235.7z"/>
					<path class="st0" d="M1331,230.5c1.2,0.3,2,1.4,1.7,2.6c-0.3,1.2-1.4,2-2.6,1.7c-1-0.2-1.7-1.1-1.8-2.2
						C1328.5,231.3,1329.7,230.4,1331,230.5 M1331,228.8c-2.1,0.3-3.7,2.2-3.4,4.4c0.3,2.1,2.2,3.7,4.4,3.4c2-0.2,3.4-1.9,3.4-3.9
						C1335.3,230.4,1333.3,228.7,1331,228.8z"/>
					<path class="st4" d="M1356,236.8c-1.7-0.3-2.8-1.8-2.5-3.5s1.8-2.8,3.5-2.5c1.5,0.2,2.6,1.5,2.6,3
						C1359.4,235.6,1357.8,237,1356,236.8z"/>
					<path class="st0" d="M1356,231.6c1.2,0.3,2,1.4,1.7,2.6c-0.3,1.2-1.4,2-2.6,1.7c-1-0.2-1.7-1.1-1.8-2.2
						C1353.5,232.5,1354.7,231.5,1356,231.6 M1356,229.9c-2.1,0.3-3.7,2.2-3.4,4.4c0.3,2.1,2.2,3.7,4.4,3.4c2-0.2,3.4-1.9,3.4-3.9
						C1360.3,231.5,1358.3,229.8,1356,229.9L1356,229.9z"/>
					<path class="st4" d="M1300.2,204c-1.7-0.3-2.8-1.8-2.5-3.5s1.8-2.8,3.5-2.5c1.5,0.2,2.6,1.5,2.6,3
						C1303.6,202.8,1302,204.1,1300.2,204z"/>
					<path class="st0" d="M1300.2,198.8c1.2,0.3,2,1.4,1.7,2.6s-1.4,2-2.6,1.7c-1-0.2-1.8-1.1-1.8-2.2
						C1297.7,199.6,1298.9,198.7,1300.2,198.8 M1300.2,197.1c-2.1,0.3-3.7,2.2-3.4,4.4c0.3,2.1,2.2,3.7,4.4,3.4
						c2-0.2,3.4-1.9,3.4-3.9C1304.5,198.7,1302.5,196.9,1300.2,197.1z"/>
					<path class="st4" d="M1410.5,186.1c-1.7-0.3-2.8-1.8-2.5-3.5s1.8-2.8,3.5-2.5c1.5,0.2,2.6,1.5,2.6,3
						C1413.9,184.9,1412.3,186.3,1410.5,186.1z"/>
					<path class="st0" d="M1410.5,181c1.2,0.3,2,1.4,1.7,2.6s-1.4,2-2.6,1.7c-1-0.2-1.7-1.1-1.8-2.2
						C1408,181.8,1409.2,180.8,1410.5,181 M1410.5,179.2c-2.1,0.3-3.7,2.2-3.4,4.4c0.3,2.1,2.2,3.7,4.4,3.4c2-0.2,3.4-1.9,3.4-3.9
						C1414.8,180.8,1412.8,179.1,1410.5,179.2z"/>
					<path class="st4" d="M1428,270.6c-1.7-0.3-2.8-1.8-2.5-3.5c0.3-1.7,1.8-2.8,3.5-2.5c1.5,0.2,2.6,1.5,2.6,3
						C1431.3,269.4,1429.8,270.8,1428,270.6z"/>
					<path class="st0" d="M1428,265.5c1.2,0.3,2,1.4,1.7,2.6c-0.3,1.2-1.4,2-2.6,1.7c-1-0.2-1.7-1.1-1.8-2.2
						C1425.4,266.3,1426.6,265.3,1428,265.5 M1428,263.7c-2.1,0.3-3.7,2.2-3.4,4.4c0.3,2.1,2.2,3.7,4.4,3.4c2-0.2,3.4-1.9,3.4-3.9
						C1432.2,265.3,1430.3,263.6,1428,263.7z"/>
					<path class="st4" d="M1434.6,287.3c-1.7-0.3-2.8-1.8-2.6-3.5c0.3-1.7,1.8-2.8,3.5-2.6c1.5,0.2,2.6,1.5,2.6,3.1
						C1438,286.1,1436.4,287.5,1434.6,287.3z"/>
					<path class="st0" d="M1434.6,282.1c1.2,0.3,2,1.4,1.7,2.6s-1.4,2-2.6,1.7c-1-0.2-1.7-1.1-1.8-2.2
						C1432,283,1433.2,282,1434.6,282.1 M1434.6,280.4c-2.1,0.3-3.7,2.2-3.4,4.4c0.3,2.1,2.2,3.7,4.4,3.4c2-0.2,3.4-1.9,3.4-3.9
						C1438.8,282,1436.9,280.3,1434.6,280.4z"/>
					<path class="st4" d="M1453.7,284c-1.7-0.3-2.8-1.8-2.6-3.5c0.3-1.7,1.8-2.8,3.5-2.6c1.5,0.2,2.6,1.5,2.6,3.1
						C1457,282.7,1455.5,284.1,1453.7,284z"/>
					<path class="st0" d="M1453.7,278.7c1.2,0.3,2,1.4,1.7,2.6s-1.4,2-2.6,1.7c-1-0.2-1.7-1.1-1.8-2.2
						C1451.1,279.6,1452.3,278.6,1453.7,278.7 M1453.7,277c-2.1,0.3-3.7,2.2-3.4,4.4c0.3,2.1,2.2,3.7,4.4,3.4c2-0.2,3.4-1.9,3.4-3.9
						C1457.9,278.6,1456,276.9,1453.7,277z"/>
					<path class="st4" d="M1398,335.2c-1.7-0.3-2.8-1.8-2.5-3.5c0.3-1.7,1.8-2.8,3.5-2.5c1.5,0.2,2.6,1.5,2.6,3
						C1401.4,334,1399.8,335.4,1398,335.2z"/>
					<path class="st0" d="M1398,330c1.2,0.3,2,1.4,1.7,2.6c-0.3,1.2-1.4,2-2.6,1.7c-1-0.2-1.7-1.1-1.8-2.2
						C1395.5,330.9,1396.7,329.9,1398,330 M1398,328.3c-2.1,0.3-3.7,2.2-3.4,4.4c0.3,2.1,2.2,3.7,4.4,3.4c2-0.2,3.4-1.9,3.4-3.9
						C1402.3,329.9,1400.3,328.2,1398,328.3z"/>
					<path class="st4" d="M1409.8,345.8c-1.7-0.3-2.8-1.8-2.5-3.5c0.3-1.7,1.8-2.8,3.5-2.5c1.5,0.2,2.6,1.5,2.6,3
						C1413.2,344.6,1411.6,345.9,1409.8,345.8z"/>
					<path class="st0" d="M1409.8,340.6c1.2,0.3,2,1.4,1.7,2.6s-1.4,2-2.6,1.7c-1-0.2-1.8-1.1-1.8-2.2
						C1407.3,341.4,1408.4,340.4,1409.8,340.6 M1409.8,338.9c-2.1,0.3-3.7,2.2-3.4,4.4c0.3,2.1,2.2,3.7,4.4,3.4
						c2-0.2,3.4-1.9,3.4-3.9C1414,340.4,1412.1,338.7,1409.8,338.9z"/>
					<path class="st4" d="M1393.5,434c-1.7-0.3-2.8-1.8-2.6-3.5c0.3-1.7,1.8-2.8,3.5-2.6c1.5,0.2,2.6,1.5,2.6,3.1
						C1396.8,432.7,1395.3,434.1,1393.5,434z"/>
					<path class="st0" d="M1393.5,428.8c1.2,0.3,2,1.4,1.7,2.6s-1.4,2-2.6,1.7c-1-0.2-1.7-1.1-1.8-2.2
						C1390.9,429.6,1392.1,428.7,1393.5,428.8 M1393.5,427.1c-2.1,0.3-3.7,2.2-3.4,4.4c0.3,2.1,2.2,3.7,4.4,3.4
						c2-0.2,3.4-1.9,3.4-3.9C1397.7,428.7,1395.7,427,1393.5,427.1z"/>
					<path class="st4" d="M1350.5,452c-1.7-0.3-2.8-1.8-2.6-3.5c0.3-1.7,1.8-2.8,3.5-2.6c1.5,0.2,2.6,1.5,2.6,3.1
						C1353.9,450.7,1352.3,452.1,1350.5,452z"/>
					<path class="st0" d="M1350.5,446.8c1.2,0.3,2,1.4,1.7,2.6s-1.4,2-2.6,1.7c-1-0.2-1.7-1.1-1.8-2.2
						C1348,447.6,1349.2,446.6,1350.5,446.8 M1350.5,445c-2.1,0.3-3.7,2.2-3.4,4.4c0.3,2.1,2.2,3.7,4.4,3.4c2-0.2,3.4-1.9,3.4-3.9
						C1354.7,446.6,1352.8,444.9,1350.5,445z"/>
					<path class="st4" d="M1377.3,456.8c-1.7-0.3-2.8-1.8-2.5-3.5s1.8-2.8,3.5-2.5c1.5,0.2,2.6,1.5,2.6,3
						C1380.6,455.6,1379.1,456.9,1377.3,456.8z"/>
					<path class="st0" d="M1377.3,451.6c1.2,0.3,2,1.4,1.7,2.6s-1.4,2-2.6,1.7c-1-0.2-1.8-1.1-1.8-2.2
						C1374.7,452.5,1375.9,451.5,1377.3,451.6 M1377.3,449.9c-2.1,0.3-3.7,2.2-3.4,4.4c0.3,2.1,2.2,3.7,4.4,3.4
						c2-0.2,3.4-1.9,3.4-3.9C1381.5,451.5,1379.6,449.8,1377.3,449.9z"/>
					<path class="st4" d="M1338.8,510.1c-1.7-0.3-2.8-1.8-2.6-3.5c0.3-1.7,1.8-2.8,3.5-2.6c1.5,0.2,2.6,1.5,2.6,3.1
						C1342.2,508.9,1340.6,510.2,1338.8,510.1z"/>
					<path class="st0" d="M1338.8,505c1.2,0.3,2,1.4,1.7,2.6s-1.4,2-2.6,1.7c-1-0.2-1.7-1.1-1.8-2.2
						C1336.3,505.8,1337.5,504.8,1338.8,505 M1338.8,503.2c-2.1,0.3-3.7,2.2-3.4,4.4c0.3,2.1,2.2,3.7,4.4,3.4c2-0.2,3.4-1.9,3.4-3.9
						C1343,504.8,1341.1,503.1,1338.8,503.2z"/>
					<path class="st4" d="M1435.5,466.4c-1.7-0.3-2.8-1.8-2.6-3.5c0.3-1.7,1.8-2.8,3.5-2.6c1.5,0.2,2.6,1.5,2.6,3.1
						C1438.8,465.1,1437.3,466.5,1435.5,466.4z"/>
					<path class="st0" d="M1435.5,461.2c1.2,0.3,2,1.4,1.7,2.6s-1.4,2-2.6,1.7c-1-0.2-1.7-1.1-1.8-2.2
						C1432.9,462,1434.1,461,1435.5,461.2 M1435.5,459.4c-2.1,0.3-3.7,2.2-3.4,4.4c0.3,2.1,2.2,3.7,4.4,3.4c2-0.2,3.4-1.9,3.4-3.9
						C1439.7,461,1437.8,459.3,1435.5,459.4z"/>
					<path class="st4" d="M1527.1,408.8c-1.7-0.3-2.8-1.8-2.6-3.5c0.3-1.7,1.8-2.8,3.5-2.6c1.5,0.2,2.6,1.5,2.6,3.1
						C1530.5,407.6,1528.9,408.9,1527.1,408.8z"/>
					<path class="st0" d="M1527.1,403.6c1.2,0.3,2,1.4,1.7,2.6s-1.4,2-2.6,1.7c-1-0.2-1.8-1.1-1.8-2.2
						C1524.6,404.4,1525.8,403.4,1527.1,403.6 M1527.1,401.9c-2.1,0.3-3.7,2.2-3.4,4.4c0.3,2.1,2.2,3.7,4.4,3.4
						c2-0.2,3.4-1.9,3.4-3.9C1531.4,403.4,1529.4,401.7,1527.1,401.9z"/>
					<path class="st4" d="M1261.9,234.4c-1.7-0.3-2.8-1.8-2.5-3.5s1.8-2.8,3.5-2.5c1.5,0.2,2.6,1.5,2.6,3
						C1265.3,233.2,1263.7,234.5,1261.9,234.4z"/>
					<path class="st0" d="M1261.9,229.2c1.2,0.3,2,1.4,1.7,2.6c-0.3,1.2-1.4,2-2.6,1.7c-1-0.2-1.7-1.1-1.8-2.2
						C1259.4,230,1260.6,229.1,1261.9,229.2 M1261.9,227.5c-2.1,0.3-3.7,2.2-3.4,4.4c0.3,2.1,2.2,3.7,4.4,3.4c2-0.2,3.4-1.9,3.4-3.9
						C1266.2,229.1,1264.2,227.3,1261.9,227.5z"/>
					<path class="st4" d="M1284.9,188.4c-1.7-0.3-2.8-1.8-2.6-3.5c0.3-1.7,1.8-2.8,3.5-2.6c1.5,0.2,2.6,1.5,2.6,3.1
						C1288.3,187.2,1286.7,188.5,1284.9,188.4z"/>
					<path class="st0" d="M1284.9,183.2c1.2,0.3,2,1.4,1.7,2.6s-1.4,2-2.6,1.7c-1-0.2-1.7-1.1-1.8-2.2
						C1282.4,184,1283.6,183.1,1284.9,183.2 M1284.9,181.5c-2.1,0.3-3.7,2.2-3.4,4.4c0.3,2.1,2.2,3.7,4.4,3.4c2-0.2,3.4-1.9,3.4-3.9
						C1289.2,183.1,1287.2,181.4,1284.9,181.5z"/>
					<path class="st4" d="M1299.9,141.2c-1.7-0.3-2.8-1.8-2.5-3.5c0.3-1.7,1.8-2.8,3.5-2.5c1.5,0.2,2.6,1.5,2.6,3
						C1303.3,140,1301.7,141.3,1299.9,141.2z"/>
					<path class="st0" d="M1299.9,136c1.2,0.3,2,1.4,1.7,2.6s-1.4,2-2.6,1.7c-1-0.2-1.7-1.1-1.8-2.2
						C1297.4,136.8,1298.6,135.8,1299.9,136 M1299.9,134.2c-2.1,0.3-3.7,2.2-3.4,4.4c0.3,2.1,2.2,3.7,4.4,3.4c2-0.2,3.4-1.9,3.4-3.9
						C1304.1,135.8,1302.2,134.1,1299.9,134.2z"/>
					<path class="st4" d="M1289.7,81.8c-1.7-0.3-2.8-1.8-2.5-3.5c0.3-1.7,1.8-2.8,3.5-2.5c1.5,0.2,2.6,1.5,2.6,3
						C1293,80.6,1291.5,81.9,1289.7,81.8z"/>
					<path class="st0" d="M1289.7,76.6c1.2,0.2,2,1.4,1.8,2.6c-0.2,1.2-1.4,2-2.6,1.8c-1.1-0.2-1.8-1.1-1.8-2.2
						C1287.2,77.4,1288.4,76.5,1289.7,76.6 M1289.7,74.9c-2.1,0.3-3.7,2.2-3.4,4.4c0.3,2.1,2.2,3.7,4.4,3.4c2-0.2,3.4-1.9,3.4-3.9
						C1294,76.5,1292,74.7,1289.7,74.9z"/>
					<ellipse class="st4" cx="1357.1" cy="28.2" rx="3.6" ry="3"/>
					<path class="st0" d="M1357.1,26.1c1.3-0.1,2.5,0.8,2.7,2.2c-0.3,1.5-1.8,2.4-3.3,2.1c-1.1-0.2-1.9-1.1-2.1-2.1
						C1354.6,26.9,1355.7,25.9,1357.1,26.1 M1357.1,24.3c-2.3-0.1-4.3,1.6-4.4,3.9c0.3,2.4,2.5,4.2,4.9,3.9c2-0.2,3.7-1.9,3.9-3.9
						C1361.3,25.9,1359.4,24.2,1357.1,24.3L1357.1,24.3z"/>
					<ellipse class="st4" cx="1421" cy="3.8" rx="3.6" ry="3"/>
					<path class="st0" d="M1421,1.7c1.3-0.1,2.5,0.8,2.7,2.2c-0.3,1.5-1.8,2.4-3.3,2.1c-1-0.2-1.8-1-2.1-2.1
						C1418.5,2.5,1419.7,1.5,1421,1.7 M1421,0c-2.3-0.1-4.3,1.6-4.4,3.9c0.3,2.4,2.6,4.1,5,3.8c2-0.3,3.5-1.8,3.8-3.8
						C1425.3,1.6,1423.3-0.2,1421,0z"/>
					<ellipse class="st4" cx="1418.6" cy="79.2" rx="3.6" ry="3"/>
					<path class="st0" d="M1418.6,77c1.2,0.3,2,1.4,1.7,2.6c-0.3,1.2-1.4,2-2.6,1.7c-1-0.2-1.8-1.1-1.8-2.2
						C1416.1,77.9,1417.2,76.9,1418.6,77 M1418.6,75.3c-2.1,0.3-3.7,2.2-3.4,4.4c0.3,2.1,2.2,3.7,4.4,3.4c2-0.2,3.4-1.9,3.4-3.9
						C1422.8,76.9,1420.9,75.2,1418.6,75.3z"/>
					<path class="st4" d="M1210,44c-1.8,0.1-3.4-1.2-3.6-3c0.3-2,2.1-3.3,4.1-3c1.6,0.2,2.8,1.5,3,3
						C1213.4,42.8,1211.8,44.1,1210,44z"/>
					<path class="st0" d="M1210,38.8c1.3-0.1,2.5,0.8,2.7,2.2c-0.3,1.5-1.8,2.4-3.3,2.1c-1.1-0.2-1.9-1.1-2.1-2.1
						C1207.5,39.6,1208.7,38.6,1210,38.8 M1210,37c-2.3-0.1-4.3,1.6-4.4,3.9c0.3,2.4,2.6,4.1,5,3.8c2-0.3,3.5-1.8,3.8-3.8
						C1214.3,38.6,1212.3,36.9,1210,37L1210,37z"/>
					<path class="st4" d="M895.5,179.7c-1.7-0.3-2.8-1.8-2.6-3.5c0.3-1.7,1.8-2.8,3.5-2.6c1.5,0.2,2.6,1.5,2.6,3.1
						C898.9,178.5,897.3,179.8,895.5,179.7z"/>
					<path class="st0" d="M895.5,174.5c1.2,0.3,2,1.4,1.7,2.6s-1.4,2-2.6,1.7c-1-0.2-1.7-1.1-1.8-2.2
						C893,175.3,894.2,174.4,895.5,174.5 M895.5,172.8c-2.1,0.3-3.7,2.2-3.4,4.4c0.3,2.1,2.2,3.7,4.4,3.4c2-0.2,3.4-1.9,3.4-3.9
						C899.8,174.4,897.8,172.6,895.5,172.8z"/>
					<path class="st4" d="M635.1,588.1c-1.7-0.3-2.8-1.8-2.5-3.5s1.8-2.8,3.5-2.5c1.5,0.2,2.6,1.5,2.6,3
						C638.5,586.9,636.9,588.3,635.1,588.1z"/>
					<path class="st0" d="M635.1,583c1.2,0.3,2,1.4,1.7,2.6s-1.4,2-2.6,1.7c-1-0.2-1.7-1.1-1.8-2.2
						C632.6,583.8,633.8,582.8,635.1,583 M635.1,581.2c-2.1,0.3-3.7,2.2-3.4,4.4c0.3,2.2,2.2,3.7,4.4,3.4c2-0.2,3.4-1.9,3.4-3.9
						C639.4,582.8,637.4,581.1,635.1,581.2z"/>
					<path class="st4" d="M647.4,639.8c-1.7-0.3-2.8-1.8-2.5-3.5s1.8-2.8,3.5-2.5c1.5,0.2,2.6,1.5,2.6,3
						C650.8,638.6,649.2,640,647.4,639.8z"/>
					<path class="st0" d="M647.4,634.6c1.2,0.3,2,1.4,1.7,2.6c-0.3,1.2-1.4,2-2.6,1.7c-1-0.2-1.7-1.1-1.8-2.2
						C644.8,635.5,646,634.5,647.4,634.6 M647.4,632.9c-2.1,0.3-3.7,2.2-3.4,4.4c0.3,2.1,2.2,3.7,4.4,3.4c2-0.2,3.4-1.9,3.4-3.9
						C651.6,634.5,649.7,632.8,647.4,632.9z"/>
					<path class="st4" d="M711,663c-1.7-0.3-2.8-1.8-2.5-3.5s1.8-2.8,3.5-2.5c1.5,0.2,2.6,1.5,2.6,3
						C714.4,661.8,712.8,663.1,711,663z"/>
					<path class="st0" d="M711,657.8c1.2,0.3,2,1.4,1.7,2.6c-0.3,1.2-1.4,2-2.6,1.7c-1-0.2-1.8-1.1-1.7-2.2
						C708.5,658.6,709.7,657.7,711,657.8 M711,656.1c-2.1,0.3-3.7,2.2-3.4,4.4c0.3,2.1,2.2,3.7,4.4,3.4c2-0.2,3.4-1.9,3.4-3.9
						C715.3,657.7,713.3,655.9,711,656.1z"/>
					<path class="st4" d="M805,708.1c-1.7-0.3-2.8-1.8-2.6-3.5c0.3-1.7,1.8-2.8,3.5-2.6c1.5,0.2,2.6,1.5,2.6,3.1
						C808.4,706.9,806.8,708.2,805,708.1z"/>
					<path class="st0" d="M805,703c1.2,0.3,2,1.4,1.7,2.6c-0.3,1.2-1.4,2-2.6,1.7c-1-0.2-1.7-1.1-1.8-2.2
						C802.5,703.8,803.7,702.8,805,703 M805,701.2c-2.1,0.3-3.7,2.2-3.4,4.4c0.3,2.1,2.2,3.7,4.4,3.4c2-0.2,3.4-1.9,3.4-3.9
						C809.3,702.8,807.3,701.1,805,701.2z"/>
					<path class="st4" d="M716.5,724.9c-1.7-0.3-2.8-1.8-2.6-3.5c0.3-1.7,1.8-2.8,3.5-2.6c1.5,0.2,2.6,1.5,2.6,3.1
						C719.9,723.7,718.3,725,716.5,724.9z"/>
					<path class="st0" d="M716.5,719.7c1.2,0.3,2,1.4,1.7,2.6c-0.3,1.2-1.4,2-2.6,1.7c-1-0.2-1.8-1.1-1.8-2.2
						C714,720.5,715.2,719.6,716.5,719.7 M716.5,718c-2.1,0.3-3.7,2.2-3.4,4.4c0.3,2.1,2.2,3.7,4.4,3.4c2-0.2,3.4-1.9,3.4-3.9
						C720.8,719.6,718.8,717.8,716.5,718z"/>
					<path class="st4" d="M645.9,715.9c-1.7-0.3-2.8-1.8-2.6-3.5c0.3-1.7,1.8-2.8,3.5-2.6c1.5,0.2,2.6,1.5,2.6,3.1
						C649.3,714.7,647.7,716,645.9,715.9z"/>
					<path class="st0" d="M645.9,710.7c1.2,0.3,2,1.4,1.7,2.6c-0.3,1.2-1.4,2-2.6,1.7c-1-0.2-1.8-1.1-1.8-2.2
						C643.4,711.5,644.5,710.5,645.9,710.7 M645.9,708.9c-2.1,0.3-3.7,2.2-3.4,4.4c0.3,2.1,2.2,3.7,4.4,3.4c2-0.2,3.4-1.9,3.4-3.9
						C650.1,710.5,648.2,708.8,645.9,708.9z"/>
					<path class="st4" d="M613.7,712c-1.7-0.3-2.8-1.8-2.6-3.5c0.3-1.7,1.8-2.8,3.5-2.6c1.5,0.2,2.6,1.5,2.6,3.1
						C617.1,710.7,615.5,712.1,613.7,712z"/>
					<path class="st0" d="M613.7,706.7c1.2,0.3,2,1.4,1.7,2.6c-0.3,1.2-1.4,2-2.6,1.7c-1-0.2-1.7-1.1-1.8-2.2
						C611.2,707.5,612.4,706.6,613.7,706.7 M613.7,705c-2.1,0.3-3.7,2.2-3.4,4.4c0.3,2.1,2.2,3.7,4.4,3.4c2-0.2,3.4-1.9,3.4-3.9
						C618,706.6,616,704.9,613.7,705z"/>
					<ellipse class="st4" cx="581.8" cy="705.6" rx="3.5" ry="3"/>
					<path class="st0" d="M581.8,703.4c1.2,0.3,2,1.4,1.7,2.6c-0.3,1.2-1.4,2-2.6,1.7c-1-0.2-1.7-1.1-1.8-2.2
						C579.3,704.3,580.5,703.3,581.8,703.4 M581.8,701.7c-2.1,0.3-3.7,2.2-3.4,4.4c0.3,2.1,2.2,3.7,4.4,3.4c2-0.2,3.4-1.9,3.4-3.9
						C586.1,703.3,584.1,701.6,581.8,701.7z"/>
					<path class="st4" d="M503.8,699c-1.7-0.3-2.8-1.8-2.6-3.5c0.3-1.7,1.8-2.8,3.5-2.6c1.5,0.2,2.6,1.5,2.6,3.1
						C507.2,697.8,505.6,699.1,503.8,699z"/>
					<path class="st0" d="M503.8,693.8c1.2,0.3,2,1.4,1.7,2.6c-0.3,1.2-1.4,2-2.6,1.7c-1-0.2-1.7-1.1-1.8-2.2
						C501.3,694.6,502.5,693.7,503.8,693.8 M503.8,692.1c-2.1,0.3-3.7,2.2-3.4,4.4c0.3,2.1,2.2,3.7,4.4,3.4c2-0.2,3.4-1.9,3.4-3.9
						C508.1,693.7,506.1,691.9,503.8,692.1z"/>
					<ellipse class="st4" cx="462.5" cy="609.4" rx="3.5" ry="3"/>
					<path class="st0" d="M462.5,607.2c1.2,0.3,1.9,1.4,1.7,2.6s-1.4,1.9-2.6,1.7c-1-0.2-1.7-1.1-1.7-2.1
						C460,608.1,461.2,607.1,462.5,607.2 M462.5,605.5c-2.1,0.3-3.7,2.2-3.4,4.4c0.3,2.1,2.2,3.7,4.4,3.4c2-0.2,3.4-1.9,3.4-3.9
						C466.8,607.1,464.8,605.4,462.5,605.5z"/>
					<path class="st4" d="M423.2,580c-1.7-0.3-2.8-1.8-2.6-3.5c0.3-1.7,1.8-2.8,3.5-2.6c1.5,0.2,2.6,1.5,2.6,3.1
						C426.6,578.8,425,580.1,423.2,580z"/>
					<path class="st0" d="M423.2,574.8c1.2,0.3,2,1.4,1.7,2.6s-1.4,2-2.6,1.7c-1-0.2-1.7-1.1-1.8-2.2
						C420.7,575.6,421.9,574.7,423.2,574.8 M423.2,573.1c-2.1,0.3-3.7,2.2-3.4,4.4c0.3,2.1,2.2,3.7,4.4,3.4c2-0.2,3.4-1.9,3.4-3.9
						C427.5,574.7,425.5,573,423.2,573.1z"/>
					<path class="st4" d="M472.7,585.5c-1.7-0.3-2.8-1.8-2.6-3.5c0.3-1.7,1.8-2.8,3.5-2.6c1.5,0.2,2.6,1.5,2.6,3.1
						C476.1,584.3,474.5,585.7,472.7,585.5z"/>
					<path class="st0" d="M472.7,580.3c1.2,0.3,2,1.4,1.7,2.6s-1.4,2-2.6,1.7c-1-0.2-1.7-1.1-1.8-2.2
						C470.2,581.2,471.4,580.2,472.7,580.3 M472.7,578.6c-2.1,0.3-3.7,2.2-3.4,4.4c0.3,2.1,2.2,3.7,4.4,3.4c2-0.2,3.4-1.9,3.4-3.9
						C476.9,580.2,475,578.5,472.7,578.6z"/>
					<path class="st4" d="M491.6,537.4c-1.7-0.3-2.8-1.8-2.6-3.5c0.3-1.7,1.8-2.8,3.5-2.6c1.5,0.2,2.6,1.5,2.6,3.1
						C495,536.2,493.4,537.6,491.6,537.4z"/>
					<path class="st0" d="M491.6,532.2c1.2,0.3,2,1.4,1.7,2.6s-1.4,2-2.6,1.7c-1-0.2-1.7-1.1-1.8-2.2
						C489.1,533.1,490.3,532.1,491.6,532.2 M491.6,530.5c-2.1,0.3-3.7,2.2-3.4,4.4c0.3,2.1,2.2,3.7,4.4,3.4c2-0.2,3.4-1.9,3.4-3.9
						C495.9,532.1,493.9,530.4,491.6,530.5z"/>
					<path class="st4" d="M460,521.1c-1.7-0.3-2.8-1.8-2.6-3.5c0.3-1.7,1.8-2.8,3.5-2.6c1.5,0.2,2.6,1.5,2.6,3.1
						C463.4,519.9,461.8,521.2,460,521.1z"/>
					<path class="st0" d="M460,515.9c1.2,0.3,2,1.4,1.7,2.6s-1.4,2-2.6,1.7c-1-0.2-1.7-1.1-1.8-2.2
						C457.5,516.7,458.7,515.8,460,515.9 M460,514.2c-2.1,0.3-3.7,2.2-3.4,4.4c0.3,2.1,2.2,3.7,4.4,3.4c2-0.2,3.4-1.9,3.4-3.9
						C464.3,515.8,462.3,514,460,514.2z"/>
					<path class="st4" d="M500.5,526.1c-1.7-0.3-2.8-1.8-2.5-3.5s1.8-2.8,3.5-2.5c1.5,0.2,2.6,1.5,2.6,3
						C503.9,524.9,502.3,526.2,500.5,526.1z"/>
					<path class="st0" d="M500.5,521c1.2,0.3,2,1.4,1.7,2.6s-1.4,2-2.6,1.7c-1-0.2-1.7-1.1-1.8-2.2
						C497.9,521.8,499.1,520.8,500.5,521 M500.5,519.2c-2.1,0.3-3.7,2.2-3.4,4.4c0.3,2.1,2.2,3.7,4.4,3.4c2-0.2,3.4-1.9,3.4-3.9
						C504.7,520.8,502.8,519.1,500.5,519.2z"/>
					<path class="st4" d="M477.5,433.8c-1.7-0.3-2.8-1.8-2.5-3.5s1.8-2.8,3.5-2.5c1.5,0.2,2.6,1.5,2.6,3
						C480.9,432.6,479.3,433.9,477.5,433.8z"/>
					<path class="st0" d="M477.5,428.6c1.2,0.3,2,1.4,1.7,2.6s-1.4,2-2.6,1.7c-1-0.2-1.7-1.1-1.8-2.2
						C475,429.4,476.2,428.4,477.5,428.6 M477.5,426.8c-2.1,0.3-3.7,2.2-3.4,4.4s2.2,3.7,4.4,3.4c2-0.2,3.4-1.9,3.4-3.9
						C481.8,428.4,479.8,426.7,477.5,426.8z"/>
					<path class="st4" d="M460,430.3c-1.7-0.3-2.8-1.8-2.6-3.5c0.3-1.7,1.8-2.8,3.5-2.6c1.5,0.2,2.6,1.5,2.6,3.1
						C463.4,429.1,461.8,430.4,460,430.3z"/>
					<path class="st0" d="M460,425.1c1.2,0.3,2,1.4,1.7,2.6s-1.4,2-2.6,1.7c-1-0.2-1.7-1.1-1.8-2.2
						C457.5,425.9,458.7,424.9,460,425.1 M460,423.3c-2.1,0.3-3.7,2.2-3.4,4.4c0.3,2.1,2.2,3.7,4.4,3.4c2-0.2,3.4-1.9,3.4-3.9
						C464.3,424.9,462.3,423.2,460,423.3z"/>
					<path class="st4" d="M448.1,385.4c-1.7-0.3-2.8-1.8-2.5-3.5s1.8-2.8,3.5-2.5c1.5,0.2,2.6,1.5,2.6,3
						C451.5,384.2,449.9,385.5,448.1,385.4z"/>
					<path class="st0" d="M448.1,380.2c1.2,0.3,2,1.4,1.7,2.6s-1.4,2-2.6,1.7c-1-0.2-1.7-1.1-1.8-2.2
						C445.6,381,446.8,380.1,448.1,380.2 M448.1,378.5c-2.1,0.3-3.7,2.2-3.4,4.4c0.3,2.1,2.2,3.7,4.4,3.4c2-0.2,3.4-1.9,3.4-3.9
						C452.4,380.1,450.4,378.4,448.1,378.5z"/>
					<path class="st4" d="M394.5,306.7c-1.7-0.3-2.8-1.8-2.6-3.5c0.3-1.7,1.8-2.8,3.5-2.6c1.5,0.2,2.6,1.5,2.6,3.1
						C397.8,305.5,396.3,306.9,394.5,306.7z"/>
					<path class="st0" d="M394.5,301.5c1.2,0.3,2,1.4,1.7,2.6s-1.4,2-2.6,1.7c-1-0.2-1.7-1.1-1.8-2.2
						C391.9,302.4,393.1,301.4,394.5,301.5 M394.5,299.8c-2.1,0.3-3.7,2.2-3.4,4.4c0.3,2.2,2.2,3.7,4.4,3.4c2-0.2,3.4-1.9,3.4-3.9
						C398.7,301.4,396.8,299.7,394.5,299.8z"/>
					<path class="st4" d="M320.2,247.5c-1.7-0.3-2.8-1.8-2.6-3.5c0.3-1.7,1.8-2.8,3.5-2.6c1.5,0.2,2.6,1.5,2.6,3.1
						C323.6,246.3,322,247.7,320.2,247.5z"/>
					<path class="st0" d="M320.2,242.3c1.2,0.3,2,1.4,1.7,2.6s-1.4,2-2.6,1.7c-1-0.2-1.7-1.1-1.8-2.2
						C317.6,243.2,318.8,242.2,320.2,242.3 M320.2,240.6c-2.1,0.3-3.7,2.2-3.4,4.4c0.3,2.1,2.2,3.7,4.4,3.4c2-0.2,3.4-1.9,3.4-3.9
						C324.4,242.2,322.5,240.5,320.2,240.6z"/>
					<path class="st4" d="M226.2,265.2c-1.7-0.3-2.8-1.8-2.5-3.5c0.3-1.7,1.8-2.8,3.5-2.5c1.5,0.2,2.6,1.5,2.6,3
						C229.6,264,228,265.4,226.2,265.2z"/>
					<path class="st0" d="M226.2,260c1.2,0.3,2,1.4,1.7,2.6c-0.3,1.2-1.4,2-2.6,1.7c-1-0.2-1.7-1.1-1.8-2.2
						C223.7,260.9,224.9,259.9,226.2,260 M226.2,258.3c-2.1,0.3-3.7,2.2-3.4,4.4c0.3,2.1,2.2,3.7,4.4,3.4c2-0.2,3.4-1.9,3.4-3.9
						C230.5,259.9,228.5,258.2,226.2,258.3z"/>
					<path class="st4" d="M185.8,248.5c-1.7-0.3-2.8-1.8-2.5-3.5s1.8-2.8,3.5-2.5c1.5,0.2,2.6,1.5,2.6,3
						C189.2,247.3,187.6,248.6,185.8,248.5z"/>
					<path class="st0" d="M185.8,243.3c1.2,0.3,2,1.4,1.7,2.6c-0.3,1.2-1.4,2-2.6,1.7c-1-0.2-1.7-1.1-1.8-2.2
						C183.2,244.1,184.4,243.2,185.8,243.3 M185.8,241.6c-2.1,0.3-3.7,2.2-3.4,4.4c0.3,2.1,2.2,3.7,4.4,3.4c2-0.2,3.4-1.9,3.4-3.9
						C190,243.2,188.1,241.5,185.8,241.6z"/>
					<path class="st4" d="M205.4,189.4c-1.7-0.3-2.8-1.8-2.5-3.5s1.8-2.8,3.5-2.5c1.5,0.2,2.6,1.5,2.6,3
						C208.8,188.2,207.2,189.5,205.4,189.4z"/>
					<path class="st0" d="M205.4,184.2c1.2,0.3,2,1.4,1.7,2.6s-1.4,2-2.6,1.7c-1-0.2-1.7-1.1-1.8-2.2
						C202.9,185.1,204.1,184.1,205.4,184.2 M205.4,182.5c-2.1,0.3-3.7,2.2-3.4,4.4c0.3,2.1,2.2,3.7,4.4,3.4c2-0.2,3.4-1.9,3.4-3.9
						C209.7,184.1,207.7,182.4,205.4,182.5z"/>
					<path class="st4" d="M141.4,206.4c-1.7-0.3-2.8-1.8-2.6-3.5c0.3-1.7,1.8-2.8,3.5-2.6c1.5,0.2,2.6,1.5,2.6,3.1
						C144.8,205.2,143.2,206.6,141.4,206.4z"/>
					<path class="st0" d="M141.4,201.2c1.2,0.3,2,1.4,1.7,2.6s-1.4,2-2.6,1.7c-1-0.2-1.7-1.1-1.8-2.2
						C138.9,202.1,140.1,201.1,141.4,201.2 M141.4,199.5c-2.1,0.3-3.7,2.2-3.4,4.4c0.3,2.1,2.2,3.7,4.4,3.4c2-0.2,3.4-1.9,3.4-3.9
						C145.7,201.1,143.7,199.4,141.4,199.5z"/>
					<path class="st4" d="M112,187.4c-1.7-0.3-2.8-1.8-2.6-3.5c0.3-1.7,1.8-2.8,3.5-2.6c1.5,0.2,2.6,1.5,2.6,3.1
						C115.4,186.2,113.8,187.5,112,187.4z"/>
					<path class="st0" d="M112,182.2c1.2,0.3,2,1.4,1.7,2.6s-1.4,2-2.6,1.7c-1-0.2-1.7-1.1-1.8-2.2C109.5,183,110.7,182.1,112,182.2
						 M112,180.5c-2.1,0.3-3.7,2.2-3.4,4.4c0.3,2.1,2.2,3.7,4.4,3.4c2-0.2,3.4-1.9,3.4-3.9C116.3,182.1,114.3,180.3,112,180.5z"/>
					<path class="st4" d="M115.9,174.8c-1.7-0.3-2.8-1.8-2.5-3.5s1.8-2.8,3.5-2.5c1.5,0.2,2.6,1.5,2.6,3
						C119.3,173.6,117.7,175,115.9,174.8z"/>
					<path class="st0" d="M115.9,169.6c1.2,0.3,2,1.4,1.7,2.6s-1.4,2-2.6,1.7c-1-0.2-1.7-1.1-1.8-2.2
						C113.4,170.5,114.6,169.5,115.9,169.6 M115.9,167.9c-2.1,0.3-3.7,2.2-3.4,4.4c0.3,2.1,2.2,3.7,4.4,3.4c2-0.2,3.4-1.9,3.4-3.9
						C120.1,169.5,118.2,167.8,115.9,167.9z"/>
					<path class="st4" d="M53,172.7c-1.7-0.3-2.8-1.8-2.5-3.5s1.8-2.8,3.5-2.5c1.5,0.2,2.6,1.5,2.6,3
						C56.4,171.5,54.8,172.8,53,172.7z"/>
					<path class="st0" d="M53,167.5c1.2,0.3,2,1.4,1.7,2.6s-1.4,2-2.6,1.7c-1-0.2-1.7-1.1-1.8-2.2C50.5,168.3,51.7,167.3,53,167.5
						 M53,165.7c-2.1,0.3-3.7,2.2-3.4,4.4c0.3,2.2,2.2,3.7,4.4,3.4c2-0.2,3.4-1.9,3.4-3.9C57.3,167.3,55.3,165.6,53,165.7z"/>
					<path class="st4" d="M10.9,233.7c-1.7,0.3-3.2-0.9-3.5-2.6s0.9-3.2,2.6-3.5c0.3,0,0.6,0,0.9,0c1.7-0.3,3.2,0.9,3.5,2.6
						s-0.9,3.2-2.6,3.5C11.5,233.8,11.2,233.8,10.9,233.7z"/>
					<path class="st0" d="M10.9,228.5c1.2-0.3,2.4,0.5,2.7,1.7s-0.5,2.4-1.7,2.7c-0.3,0.1-0.7,0.1-1,0c-1.2,0.3-2.4-0.5-2.7-1.7
						s0.5-2.4,1.7-2.7C10.2,228.5,10.6,228.5,10.9,228.5 M10.9,226.8c-2.1-0.3-4.1,1.2-4.4,3.4s1.2,4.1,3.4,4.4c0.3,0,0.7,0,1,0
						c2.1,0.3,4.1-1.2,4.4-3.4s-1.2-4.1-3.4-4.4C11.6,226.8,11.2,226.8,10.9,226.8z"/>
					<path class="st4" d="M21.4,171.1c-1.7,0.3-3.2-0.9-3.5-2.6s0.9-3.2,2.6-3.5c0.3,0,0.6,0,0.9,0c1.7-0.3,3.2,0.9,3.5,2.6
						s-0.9,3.2-2.6,3.5C22,171.1,21.7,171.1,21.4,171.1z"/>
					<path class="st0" d="M21.4,165.9c1.2-0.3,2.4,0.5,2.6,1.7s-0.5,2.4-1.7,2.6c-0.3,0.1-0.6,0.1-0.9,0c-1.2,0.3-2.4-0.5-2.6-1.7
						s0.5-2.4,1.7-2.6C20.7,165.8,21,165.8,21.4,165.9 M21.4,164.2c-2.1-0.3-4.1,1.2-4.4,3.4c-0.3,2.1,1.2,4.1,3.4,4.4
						c0.3,0,0.7,0,1,0c2.1,0.3,4.1-1.2,4.4-3.4c0.3-2.1-1.2-4.1-3.4-4.4C22.1,164.1,21.7,164.1,21.4,164.2z"/>
					<path class="st4" d="M4.4,60.2c-1.7,0.3-3.3-0.9-3.5-2.5s0.9-3.3,2.5-3.5c0.3-0.1,0.7-0.1,1,0c1.7-0.3,3.3,0.9,3.5,2.5
						C8.2,58.4,7,60,5.4,60.2C5.1,60.3,4.8,60.3,4.4,60.2z"/>
					<path class="st0" d="M4.4,55c1.4-0.1,2.6,0.8,2.7,2.2c-0.2,1.3-1.4,2.3-2.7,2.2c-1.3,0.1-2.5-0.8-2.7-2.2
						C1.9,55.8,3.1,54.9,4.4,55 M4.4,53.3C2.3,53,0.3,54.5,0,56.7s1.2,4.1,3.4,4.4c0.3,0,0.7,0,1,0c2.1,0.3,4.1-1.2,4.4-3.4
						s-1.2-4.1-3.4-4.4C5.1,53.3,4.8,53.3,4.4,53.3z"/>
					<path class="st4" d="M191.7,70.7c-1.7-0.3-2.8-1.8-2.5-3.5c0.3-1.7,1.8-2.8,3.5-2.5c1.5,0.2,2.6,1.5,2.6,3
						C195.1,69.5,193.5,70.9,191.7,70.7z"/>
					<path class="st0" d="M191.7,65.5c1.2,0.2,2,1.4,1.7,2.6c-0.2,1.2-1.4,2-2.6,1.7c-1-0.2-1.8-1.1-1.8-2.2
						C189.2,66.4,190.4,65.4,191.7,65.5 M191.7,63.8c-2.1,0.3-3.7,2.2-3.4,4.4c0.3,2.1,2.2,3.7,4.4,3.4c2-0.2,3.4-1.9,3.4-3.9
						C196,65.4,194,63.7,191.7,63.8z"/>
					<path class="st4" d="M294,57c-1.8,0.1-3.4-1.2-3.5-3c0.3-2,2.2-3.3,4.1-3c1.5,0.3,2.7,1.4,3,3C297.3,55.8,295.8,57.1,294,57z"
						/>
					<path class="st0" d="M294,51.8c1.3-0.1,2.5,0.8,2.7,2.2c-0.3,1.5-1.8,2.4-3.3,2.1c-1.1-0.2-1.9-1.1-2.1-2.1
						C291.4,52.6,292.6,51.7,294,51.8 M294,50.1c-2.3-0.1-4.2,1.6-4.4,3.9c0.3,2.4,2.5,4.2,4.9,3.9c2-0.2,3.7-1.9,3.9-3.9
						C298.2,51.7,296.2,49.9,294,50.1L294,50.1z"/>
					<path class="st4" d="M343.9,76.4c-1.7-0.3-2.8-1.8-2.6-3.5c0.3-1.7,1.8-2.8,3.5-2.6c1.5,0.2,2.6,1.5,2.6,3.1
						C347.3,75.2,345.7,76.5,343.9,76.4z"/>
					<path class="st0" d="M343.9,71.2c1.2,0.3,2,1.4,1.7,2.6c-0.3,1.2-1.4,2-2.6,1.7c-1-0.2-1.7-1.1-1.8-2.2
						C341.4,72,342.6,71,343.9,71.2 M343.9,69.5c-2.1,0.3-3.7,2.2-3.4,4.4c0.3,2.1,2.2,3.7,4.4,3.4c2-0.2,3.4-1.9,3.4-3.9
						C348.2,71.1,346.2,69.3,343.9,69.5z"/>
					<path class="st4" d="M358.9,123.2c-1.7-0.3-2.8-1.8-2.5-3.5c0.3-1.7,1.8-2.8,3.5-2.5c1.5,0.2,2.6,1.5,2.6,3
						C362.2,121.9,360.7,123.3,358.9,123.2z"/>
					<path class="st0" d="M358.9,118c1.2,0.3,2,1.4,1.7,2.6c-0.3,1.2-1.4,2-2.6,1.7c-1-0.2-1.8-1.1-1.7-2.2
						C356.3,118.8,357.5,117.8,358.9,118 M358.9,116.2c-2.1,0.3-3.7,2.2-3.4,4.4c0.3,2.1,2.2,3.7,4.4,3.4c2-0.2,3.4-1.9,3.4-3.9
						C363.1,117.8,361.1,116.1,358.9,116.2z"/>
					<path class="st4" d="M367.1,57.1c-1.8,0.1-3.4-1.2-3.5-3c0.3-2,2.2-3.3,4.1-3c1.5,0.2,2.7,1.4,3,3
						C370.5,55.9,368.9,57.3,367.1,57.1z"/>
					<path class="st0" d="M367.1,52c1.3-0.1,2.5,0.8,2.7,2.2c-0.3,1.5-1.8,2.4-3.3,2.1c-1.1-0.2-1.9-1.1-2.1-2.1
						C364.6,52.8,365.8,51.8,367.1,52 M367.1,50.2c-2.3-0.1-4.2,1.6-4.4,3.9c0.3,2.4,2.5,4.2,5,3.8c2-0.3,3.6-1.8,3.8-3.8
						C371.4,51.8,369.4,50.1,367.1,50.2z"/>
					<path class="st4" d="M180.8,50.5c-1.8,0.1-3.4-1.2-3.6-3c0.3-2,2.2-3.3,4.1-3c1.5,0.3,2.7,1.4,3,3
						C184.1,49.3,182.6,50.7,180.8,50.5z"/>
					<path class="st0" d="M180.8,45.3c1.3-0.1,2.5,0.8,2.7,2.2c-0.3,1.5-1.8,2.4-3.3,2.1c-1.1-0.2-1.9-1.1-2.1-2.1
						C178.2,46.2,179.4,45.2,180.8,45.3 M180.8,43.6c-2.3-0.1-4.2,1.6-4.4,3.9c0.3,2.4,2.5,4.2,5,3.8c2-0.3,3.6-1.8,3.8-3.8
						C185,45.2,183,43.5,180.8,43.6z"/>
					<path class="st4" d="M323.4,353.2c-1.7-0.3-2.8-1.8-2.5-3.5c0.3-1.7,1.8-2.8,3.5-2.5c1.5,0.2,2.6,1.5,2.6,3
						C326.8,352,325.2,353.4,323.4,353.2z"/>
					<path class="st0" d="M323.4,348c1.2,0.3,2,1.4,1.7,2.6c-0.3,1.2-1.4,2-2.6,1.7c-1-0.2-1.8-1.1-1.8-2.2
						C320.9,348.9,322.1,347.9,323.4,348 M323.4,346.3c-2.1,0.3-3.7,2.2-3.4,4.4c0.3,2.1,2.2,3.7,4.4,3.4c2-0.2,3.4-1.9,3.4-3.9
						C327.7,347.9,325.7,346.2,323.4,346.3z"/>
					<path class="st4" d="M281.4,378.6c-1.7-0.3-2.8-1.8-2.5-3.5s1.8-2.8,3.5-2.5c1.5,0.2,2.6,1.5,2.6,3
						C284.7,377.4,283.2,378.8,281.4,378.6z"/>
					<path class="st0" d="M281.4,373.4c1.2,0.3,2,1.4,1.7,2.6s-1.4,2-2.6,1.7c-1-0.2-1.7-1.1-1.8-2.2
						C278.8,374.3,280,373.3,281.4,373.4 M281.4,371.7c-2.1,0.3-3.7,2.2-3.4,4.4s2.2,3.7,4.4,3.4c2-0.2,3.4-1.9,3.4-3.9
						C285.6,373.3,283.6,371.6,281.4,371.7z"/>
					<path class="st4" d="M309.8,363.7c-1.7-0.3-2.8-1.8-2.6-3.5c0.3-1.7,1.8-2.8,3.5-2.6c1.5,0.2,2.6,1.5,2.6,3.1
						C313.2,362.5,311.6,363.9,309.8,363.7z"/>
					<path class="st0" d="M309.8,358.5c1.2,0.3,2,1.4,1.7,2.6s-1.4,2-2.6,1.7c-1-0.2-1.7-1.1-1.8-2.2
						C307.3,359.4,308.5,358.4,309.8,358.5 M309.8,356.8c-2.1,0.3-3.7,2.2-3.4,4.4c0.3,2.1,2.2,3.7,4.4,3.4c2-0.2,3.4-1.9,3.4-3.9
						C314.1,358.4,312.1,356.7,309.8,356.8z"/>
					<path class="st4" d="M269.2,401.4c-1.7-0.3-2.8-1.8-2.5-3.5s1.8-2.8,3.5-2.5c1.5,0.2,2.6,1.5,2.6,3
						C272.5,400.2,271,401.6,269.2,401.4z"/>
					<path class="st0" d="M269.2,396.2c1.2,0.3,2,1.4,1.7,2.6s-1.4,2-2.6,1.7c-1-0.2-1.8-1.1-1.7-2.2
						C266.6,397.1,267.8,396.1,269.2,396.2 M269.2,394.5c-2.1,0.3-3.7,2.2-3.4,4.4s2.2,3.7,4.4,3.4c2-0.2,3.4-1.9,3.4-3.9
						C273.4,396.1,271.4,394.4,269.2,394.5z"/>
					<path class="st4" d="M314,397.1c-1.7-0.3-2.8-1.8-2.6-3.5c0.3-1.7,1.8-2.8,3.5-2.6c1.5,0.2,2.6,1.5,2.6,3.1
						C317.4,395.9,315.8,397.3,314,397.1z"/>
					<path class="st0" d="M314,392c1.2,0.3,2,1.4,1.7,2.6s-1.4,2-2.6,1.7c-1-0.2-1.7-1.1-1.8-2.2C311.5,392.8,312.7,391.8,314,392
						 M314,390.2c-2.1,0.3-3.7,2.2-3.4,4.4c0.3,2.1,2.2,3.7,4.4,3.4c2-0.2,3.4-1.9,3.4-3.9C318.3,391.8,316.3,390.1,314,390.2z"/>
					<path class="st4" d="M333.1,443.5c-1.7-0.3-2.8-1.8-2.6-3.5c0.3-1.7,1.8-2.8,3.5-2.6c1.5,0.2,2.6,1.5,2.6,3.1
						C336.5,442.3,334.9,443.6,333.1,443.5z"/>
					<path class="st0" d="M333.1,438.3c1.2,0.3,2,1.4,1.7,2.6s-1.4,2-2.6,1.7c-1-0.2-1.8-1.1-1.8-2.2
						C330.6,439.1,331.8,438.1,333.1,438.3 M333.1,436.5c-2.1,0.3-3.7,2.2-3.4,4.4c0.3,2.1,2.2,3.7,4.4,3.4c2-0.2,3.4-1.9,3.4-3.9
						C337.4,438.1,335.4,436.4,333.1,436.5z"/>
					<path class="st4" d="M289.6,457.7c-1.7-0.3-2.8-1.8-2.5-3.5s1.8-2.8,3.5-2.5c1.5,0.2,2.6,1.5,2.6,3
						C292.9,456.5,291.4,457.9,289.6,457.7z"/>
					<path class="st0" d="M289.6,452.6c1.2,0.3,2,1.4,1.7,2.6s-1.4,2-2.6,1.7c-1-0.2-1.7-1.1-1.8-2.2
						C287,453.4,288.2,452.4,289.6,452.6 M289.6,450.8c-2.1,0.3-3.7,2.2-3.4,4.4c0.3,2.1,2.2,3.7,4.4,3.4c2-0.2,3.4-1.9,3.4-3.9
						C293.8,452.4,291.8,450.7,289.6,450.8z"/>
					<path class="st4" d="M225.6,470.8c-1.7-0.3-2.8-1.8-2.5-3.5s1.8-2.8,3.5-2.5c1.5,0.2,2.6,1.5,2.6,3
						C229,469.6,227.4,470.9,225.6,470.8z"/>
					<path class="st0" d="M225.6,465.6c1.2,0.3,2,1.4,1.7,2.6s-1.4,2-2.6,1.7c-1-0.2-1.8-1.1-1.8-2.2
						C223.1,466.4,224.3,465.5,225.6,465.6 M225.6,463.9c-2.1,0.3-3.7,2.2-3.4,4.4c0.3,2.1,2.2,3.7,4.4,3.4c2-0.2,3.4-1.9,3.4-3.9
						C229.9,465.5,227.9,463.7,225.6,463.9z"/>
					<path class="st4" d="M223.4,511.6c-1.7-0.3-2.8-1.8-2.5-3.5s1.8-2.8,3.5-2.5c1.5,0.2,2.6,1.5,2.6,3
						C226.8,510.4,225.2,511.7,223.4,511.6z"/>
					<path class="st0" d="M223.4,506.4c1.2,0.3,2,1.4,1.7,2.6s-1.4,2-2.6,1.7c-1-0.2-1.7-1.1-1.8-2.2
						C220.9,507.2,222.1,506.3,223.4,506.4 M223.4,504.7c-2.1,0.3-3.7,2.2-3.4,4.4c0.3,2.1,2.2,3.7,4.4,3.4c2-0.2,3.4-1.9,3.4-3.9
						C227.7,506.3,225.7,504.5,223.4,504.7z"/>
					<path class="st4" d="M234.8,521.8c-1.7-0.3-2.8-1.8-2.6-3.5c0.3-1.7,1.8-2.8,3.5-2.6c1.5,0.2,2.6,1.5,2.6,3.1
						C238.2,520.6,236.6,521.9,234.8,521.8z"/>
					<path class="st0" d="M234.8,516.6c1.2,0.3,2,1.4,1.7,2.6s-1.4,2-2.6,1.7c-1-0.2-1.7-1.1-1.8-2.2
						C232.3,517.4,233.5,516.5,234.8,516.6 M234.8,514.9c-2.1,0.3-3.7,2.2-3.4,4.4c0.3,2.1,2.2,3.7,4.4,3.4c2-0.2,3.4-1.9,3.4-3.9
						C239,516.5,237.1,514.7,234.8,514.9z"/>
					<path class="st4" d="M257.9,567.6c-1.7-0.3-2.8-1.8-2.5-3.5s1.8-2.8,3.5-2.5c1.5,0.2,2.6,1.5,2.6,3
						C261.3,566.4,259.7,567.7,257.9,567.6z"/>
					<path class="st0" d="M257.9,562.4c1.2,0.3,2,1.4,1.7,2.6s-1.4,2-2.6,1.7c-1-0.2-1.8-1.1-1.7-2.2
						C255.4,563.2,256.6,562.3,257.9,562.4 M257.9,560.7c-2.1,0.3-3.7,2.2-3.4,4.4c0.3,2.1,2.2,3.7,4.4,3.4c2-0.2,3.4-1.9,3.4-3.9
						C262.2,562.3,260.2,560.6,257.9,560.7z"/>
					<path class="st4" d="M338.7,588.5c-1.7-0.3-2.8-1.8-2.5-3.5s1.8-2.8,3.5-2.5c1.5,0.2,2.6,1.5,2.6,3
						C342.1,587.3,340.5,588.6,338.7,588.5z"/>
					<path class="st0" d="M338.7,583.3c1.2,0.3,2,1.4,1.7,2.6s-1.4,2-2.6,1.7c-1-0.2-1.7-1.1-1.8-2.2
						C336.2,584.1,337.4,583.2,338.7,583.3 M338.7,581.6c-2.1,0.3-3.7,2.2-3.4,4.4c0.3,2.1,2.2,3.7,4.4,3.4c2-0.2,3.4-1.9,3.4-3.9
						C343,583.2,341,581.4,338.7,581.6z"/>
					<path class="st4" d="M259.2,605.1c-1.7-0.3-2.8-1.8-2.5-3.5s1.8-2.8,3.5-2.5c1.5,0.2,2.6,1.5,2.6,3
						C262.5,603.9,261,605.2,259.2,605.1z"/>
					<path class="st0" d="M259.2,599.9c1.2,0.3,2,1.4,1.7,2.6s-1.4,2-2.6,1.7c-1-0.2-1.7-1.1-1.8-2.2
						C256.6,600.7,257.8,599.7,259.2,599.9 M259.2,598.2c-2.1,0.3-3.7,2.2-3.4,4.4c0.3,2.1,2.2,3.7,4.4,3.4c2-0.2,3.4-1.9,3.4-3.9
						C263.4,599.8,261.5,598,259.2,598.2z"/>
					<path class="st4" d="M161.9,624.3c-1.7-0.3-2.8-1.8-2.5-3.5s1.8-2.8,3.5-2.5c1.5,0.2,2.6,1.5,2.6,3
						C165.3,623.1,163.7,624.4,161.9,624.3z"/>
					<path class="st0" d="M161.9,619.1c1.2,0.3,2,1.4,1.7,2.6c-0.3,1.2-1.4,2-2.6,1.7c-1-0.2-1.8-1.1-1.7-2.2
						C159.4,619.9,160.6,619,161.9,619.1 M161.9,617.4c-2.1,0.3-3.7,2.2-3.4,4.4c0.3,2.1,2.2,3.7,4.4,3.4c2-0.2,3.4-1.9,3.4-3.9
						C166.1,619,164.2,617.2,161.9,617.4z"/>
					<path class="st4" d="M76.5,563.5c-1.7-0.3-2.8-1.8-2.5-3.5s1.8-2.8,3.5-2.5c1.5,0.2,2.6,1.5,2.6,3
						C79.9,562.3,78.3,563.7,76.5,563.5z"/>
					<path class="st0" d="M76.5,558.4c1.2,0.3,2,1.4,1.7,2.6s-1.4,2-2.6,1.7c-1-0.2-1.8-1.1-1.7-2.2C74,559.2,75.1,558.2,76.5,558.4
						 M76.5,556.6c-2.1,0.3-3.7,2.2-3.4,4.4c0.3,2.1,2.2,3.7,4.4,3.4c2-0.2,3.4-1.9,3.4-3.9C80.7,558.2,78.8,556.5,76.5,556.6z"/>
					<path class="st4" d="M70.8,578c-1.7-0.3-2.8-1.8-2.5-3.5s1.8-2.8,3.5-2.5c1.5,0.2,2.6,1.5,2.6,3
						C74.1,576.8,72.6,578.1,70.8,578z"/>
					<path class="st0" d="M70.8,572.8c1.2,0.3,1.9,1.5,1.7,2.7c-0.3,1.2-1.5,1.9-2.7,1.7c-1-0.2-1.7-1.1-1.7-2.1
						C68.2,573.6,69.4,572.7,70.8,572.8 M70.7,571.1c-2.1,0.3-3.7,2.3-3.4,4.4c0.3,2.1,2.3,3.7,4.4,3.4c1.9-0.3,3.4-1.9,3.4-3.9
						C75,572.7,73,570.9,70.7,571.1L70.7,571.1z"/>
					<path class="st4" d="M36.4,600.6c-1.7,0.3-3.3-0.9-3.5-2.5c-0.3-1.7,0.9-3.3,2.5-3.5c0.3-0.1,0.7-0.1,1,0
						c1.7-0.3,3.3,0.9,3.5,2.5c0.3,1.7-0.9,3.3-2.5,3.5C37.1,600.6,36.7,600.6,36.4,600.6z"/>
					<path class="st0" d="M36.4,595.4c1.2-0.3,2.4,0.5,2.6,1.7c0.3,1.2-0.5,2.4-1.7,2.6c-0.3,0.1-0.6,0.1-0.9,0
						c-1.2,0.3-2.4-0.5-2.6-1.7c-0.3-1.2,0.5-2.4,1.7-2.6C35.8,595.3,36.1,595.3,36.4,595.4 M36.4,593.6c-2.1-0.3-4.1,1.3-4.4,3.4
						c-0.3,2.1,1.3,4.1,3.4,4.4c0.3,0,0.6,0,1,0c2.1,0.3,4.1-1.3,4.4-3.4c0.3-2.1-1.3-4.1-3.4-4.4C37,593.6,36.7,593.6,36.4,593.6z"
						/>
					<path class="st4" d="M35.8,681.2c-1.7,0.3-3.3-0.9-3.5-2.5c-0.3-1.7,0.9-3.3,2.5-3.5c0.3-0.1,0.7-0.1,1,0
						c1.7-0.3,3.3,0.9,3.5,2.5c0.3,1.7-0.9,3.3-2.5,3.5C36.5,681.2,36.2,681.2,35.8,681.2z"/>
					<path class="st0" d="M35.8,676c1.2-0.3,2.4,0.5,2.6,1.7c0.3,1.2-0.5,2.4-1.7,2.6c-0.3,0.1-0.6,0.1-0.9,0
						c-1.2,0.3-2.4-0.5-2.6-1.7c-0.3-1.2,0.5-2.4,1.7-2.6C35.2,675.9,35.5,675.9,35.8,676 M35.8,674.2c-2.1-0.3-4.1,1.2-4.4,3.4
						c-0.3,2.1,1.2,4.1,3.4,4.4c0.3,0,0.7,0,1,0c2.1,0.3,4.1-1.2,4.4-3.4c0.3-2.1-1.2-4.1-3.4-4.4C36.5,674.2,36.2,674.2,35.8,674.2
						z"/>
					<path class="st4" d="M139.7,691.1c-1.7-0.3-2.8-1.8-2.6-3.5c0.3-1.7,1.8-2.8,3.5-2.6c1.5,0.2,2.6,1.5,2.6,3.1
						C143,689.9,141.5,691.3,139.7,691.1z"/>
					<path class="st0" d="M139.7,686c1.2,0.3,2,1.4,1.7,2.6c-0.3,1.2-1.4,2-2.6,1.7c-1-0.2-1.7-1.1-1.8-2.2
						C137.1,686.8,138.3,685.8,139.7,686 M139.7,684.2c-2.1,0.3-3.7,2.2-3.4,4.4c0.3,2.1,2.2,3.7,4.4,3.4c2-0.2,3.4-1.9,3.4-3.9
						C143.9,685.8,141.9,684.1,139.7,684.2z"/>
					<path class="st4" d="M178,709.2c-1.7-0.3-2.8-1.8-2.5-3.5s1.8-2.8,3.5-2.5c1.5,0.2,2.6,1.5,2.6,3
						C181.3,708,179.8,709.3,178,709.2z"/>
					<path class="st0" d="M178,704c1.2,0.3,2,1.4,1.7,2.6c-0.3,1.2-1.4,2-2.6,1.7c-1-0.2-1.7-1.1-1.8-2.2
						C175.4,704.8,176.6,703.8,178,704 M178,702.2c-2.1,0.3-3.7,2.2-3.4,4.4s2.2,3.7,4.4,3.4c2-0.2,3.4-1.9,3.4-3.9
						C182.2,703.8,180.2,702.1,178,702.2z"/>
					<ellipse class="st4" cx="246.9" cy="666.6" rx="3.6" ry="3"/>
					<path class="st0" d="M246.9,664.4c1.2,0.3,2,1.4,1.7,2.6c-0.3,1.2-1.4,2-2.6,1.7c-1-0.2-1.7-1.1-1.8-2.2
						C244.4,665.2,245.6,664.3,246.9,664.4 M246.9,662.7c-2.1,0.3-3.7,2.2-3.4,4.4c0.3,2.1,2.2,3.7,4.4,3.4c2-0.2,3.4-1.9,3.4-3.9
						C251.1,664.3,249.2,662.6,246.9,662.7z"/>
					<path class="st4" d="M281,714.7c-1.7-0.3-2.8-1.8-2.5-3.5s1.8-2.8,3.5-2.5c1.5,0.2,2.6,1.5,2.6,3
						C284.4,713.5,282.8,714.8,281,714.7z"/>
					<path class="st0" d="M281,709.5c1.2,0.3,1.9,1.4,1.7,2.6s-1.4,1.9-2.6,1.7c-1-0.2-1.7-1.1-1.7-2.2
						C278.5,710.4,279.7,709.4,281,709.5 M281,707.8c-2.1,0.3-3.7,2.2-3.4,4.4c0.3,2.1,2.2,3.7,4.4,3.4c2-0.2,3.4-1.9,3.4-3.9
						C285.3,709.4,283.3,707.7,281,707.8z"/>
					<path class="st4" d="M301.2,696.3c-1.7-0.3-2.8-1.8-2.6-3.5c0.3-1.7,1.8-2.8,3.5-2.6c1.5,0.2,2.6,1.5,2.6,3.1
						C304.6,695.1,303,696.4,301.2,696.3z"/>
					<path class="st0" d="M301.2,691.1c1.2,0.3,2,1.4,1.7,2.6c-0.3,1.2-1.4,2-2.6,1.7c-1-0.2-1.7-1.1-1.8-2.2
						C298.7,691.9,299.9,691,301.2,691.1 M301.2,689.4c-2.1,0.3-3.7,2.2-3.4,4.4c0.3,2.1,2.2,3.7,4.4,3.4c2-0.2,3.4-1.9,3.4-3.9
						C305.5,691,303.5,689.2,301.2,689.4z"/>
					<path class="st4" d="M356.1,651.5c-1.7-0.3-2.8-1.8-2.5-3.5s1.8-2.8,3.5-2.5c1.5,0.2,2.6,1.5,2.6,3
						C359.5,650.3,357.9,651.7,356.1,651.5z"/>
					<path class="st0" d="M356.1,646.4c1.2,0.3,2,1.4,1.7,2.6c-0.3,1.2-1.4,2-2.6,1.7c-1-0.2-1.8-1.1-1.7-2.2
						C353.6,647.2,354.8,646.2,356.1,646.4 M356.1,644.6c-2.1,0.3-3.7,2.2-3.4,4.4c0.3,2.1,2.2,3.7,4.4,3.4c2-0.2,3.4-1.9,3.4-3.9
						C360.4,646.2,358.4,644.5,356.1,644.6z"/>
					<path class="st4" d="M322,643.3c-1.7-0.3-2.8-1.8-2.5-3.5s1.8-2.8,3.5-2.5c1.5,0.2,2.6,1.5,2.6,3
						C325.4,642.1,323.8,643.4,322,643.3z"/>
					<path class="st0" d="M322,638.1c1.2,0.3,2,1.4,1.7,2.6c-0.3,1.2-1.4,2-2.6,1.7c-1-0.2-1.7-1.1-1.8-2.2
						C319.5,638.9,320.7,638,322,638.1 M322,636.4c-2.1,0.3-3.7,2.2-3.4,4.4c0.3,2.1,2.2,3.7,4.4,3.4c2-0.2,3.4-1.9,3.4-3.9
						C326.3,638,324.3,636.2,322,636.4z"/>
					<path class="st4" d="M340.8,643c-1.7-0.3-2.8-1.8-2.5-3.5s1.8-2.8,3.5-2.5c1.5,0.2,2.6,1.5,2.6,3
						C344.1,641.8,342.6,643.1,340.8,643z"/>
					<path class="st0" d="M340.8,637.8c1.2,0.3,1.9,1.5,1.7,2.7c-0.3,1.2-1.5,1.9-2.7,1.7c-1-0.2-1.7-1.1-1.7-2.2
						C338.2,638.6,339.4,637.7,340.8,637.8 M340.7,636.1c-2.1,0.3-3.7,2.2-3.4,4.4c0.3,2.1,2.2,3.7,4.4,3.4c2-0.2,3.4-1.9,3.4-3.9
						C345,637.7,343,635.9,340.7,636.1z"/>
					<path class="st4" d="M334.8,721.1c-1.7-0.3-2.8-1.8-2.5-3.5s1.8-2.8,3.5-2.5c1.5,0.2,2.6,1.5,2.6,3
						C338.1,719.9,336.6,721.2,334.8,721.1z"/>
					<path class="st0" d="M334.8,715.9c1.2,0.3,2,1.4,1.7,2.6c-0.3,1.2-1.4,2-2.6,1.7c-1-0.2-1.8-1.1-1.7-2.2
						C332.2,716.7,333.4,715.8,334.8,715.9 M334.8,714.2c-2.1,0.3-3.7,2.2-3.4,4.4c0.3,2.1,2.2,3.7,4.4,3.4c2-0.2,3.4-1.9,3.4-3.9
						C339,715.8,337.1,714,334.8,714.2z"/>
					<path class="st4" d="M550.7,597.1c-1.7-0.3-2.8-1.8-2.6-3.5c0.3-1.7,1.8-2.8,3.5-2.6c1.5,0.2,2.6,1.5,2.6,3.1
						C554,595.9,552.5,597.2,550.7,597.1z"/>
					<path class="st0" d="M550.7,591.9c1.2,0.3,2,1.4,1.7,2.6s-1.4,2-2.6,1.7c-1-0.2-1.7-1.1-1.8-2.2
						C548.1,592.7,549.3,591.8,550.7,591.9 M550.7,590.2c-2.1,0.3-3.7,2.2-3.4,4.4c0.3,2.2,2.2,3.7,4.4,3.4c2-0.2,3.4-1.9,3.4-3.9
						C554.9,591.8,553,590,550.7,590.2z"/>
					<path class="st4" d="M791.9,579.5c-1.7-0.3-2.8-1.8-2.5-3.5s1.8-2.8,3.5-2.5c1.5,0.2,2.6,1.5,2.6,3
						C795.3,578.3,793.7,579.6,791.9,579.5z"/>
					<path class="st0" d="M791.9,574.3c1.2,0.3,2,1.4,1.7,2.6s-1.4,2-2.6,1.7c-1-0.2-1.7-1.1-1.8-2.2
						C789.3,575.1,790.5,574.2,791.9,574.3 M791.9,572.6c-2.1,0.3-3.7,2.2-3.4,4.4c0.3,2.1,2.2,3.7,4.4,3.4c2-0.2,3.4-1.9,3.4-3.9
						C796.1,574.2,794.2,572.5,791.9,572.6z"/>
				</g>
			</g>
		</g>
	</g>
</g>
</svg>
