<?xml version="1.0" encoding="utf-8"?>
<!-- Generator: Adobe Illustrator 26.2.1, SVG Export Plug-In . SVG Version: 6.00 Build 0)  -->
<svg version="1.1" id="SvgjsSvg1241" xmlns:svgjs="http://svgjs.dev/svgjs"
	 xmlns="http://www.w3.org/2000/svg" xmlns:xlink="http://www.w3.org/1999/xlink" x="0px" y="0px" viewBox="0 0 753.8 244.8"
	 style="enable-background:new 0 0 753.8 244.8;" xml:space="preserve">
<style type="text/css">
	.st0{fill:#383838;}
	.st1{fill:#CA3433;}
</style>
<g transform="matrix(1,0,0,1,39.55199999999999,88.23707558405863)">
	<g>
		<g>
			<path id="text-0" class="st0" d="M48.4,82.9H30.9c-2.6-4.7-5.9-8.1-9.9-10.3s-8.6-3.2-13.9-3.2l0,0c-4,0-7.8,0.8-11.4,2.5
				c-3.5,1.7-6.6,4.1-9.2,7.2c-2.6,3.1-4.7,6.9-6.3,11.3c-1.5,4.5-2.3,9.4-2.3,14.8l0,0c0,5.4,0.8,10.3,2.3,14.7s3.6,8.1,6.3,11.1
				c2.7,3.1,5.8,5.4,9.3,7.1s7.3,2.5,11.3,2.5l0,0c6,0,11.2-1.5,15.6-4.4c4.4-2.9,7.9-7.1,10.5-12.7l0,0l14.3,7.1
				c-1.9,4-4.2,7.5-6.9,10.7s-5.8,5.9-9.3,8.1c-3.4,2.2-7.2,4-11.4,5.2c-4.1,1.2-8.5,1.8-13.1,1.8l0,0c-6.7,0-12.9-1.3-18.6-3.8
				s-10.6-6-14.7-10.6c-4.1-4.5-7.4-9.9-9.7-16.2c-2.3-6.3-3.4-13.2-3.4-20.6l0,0c0-7.5,1.2-14.3,3.6-20.6s5.7-11.7,10-16.2
				c4.2-4.5,9.2-8,14.8-10.6C-5.6,55.3,0.5,54,7,54l0,0c6.1,0,11.9,1.1,17.3,3.2c5.4,2.1,10.2,5.3,14.3,9.6l0,0h9.8L48.4,82.9
				L48.4,82.9z M97.2,41.5v15.6h22.4v14H97.2v66.4h15.1v16h-47v-16h14.5V71.1H63.9v-14h15.9V42c0.1-5.6,0.9-10.5,2.4-14.6
				c1.5-4.2,3.6-7.7,6.3-10.5s6-4.8,9.9-6.2c3.8-1.4,8.1-2.1,12.8-2.1l0,0c3.3,0,6.3,0.2,8.9,0.5c2.6,0.3,4.9,0.8,7,1.3
				c2.1,0.5,3.9,1.1,5.5,1.8c1.6,0.6,3,1.2,4.2,1.8l0,0l-5.3,12.4c-2-1-4.6-1.9-7.8-2.7c-3.2-0.7-6.5-1.1-10-1.1l0,0
				c-5.2,0-9.2,1.6-12.2,4.8C98.7,30.6,97.2,35.3,97.2,41.5L97.2,41.5z M283.5,73.2v-16h30.7v11.3h0.2c2.1-1.8,4.3-3.5,6.7-5.1
				c2.3-1.6,4.7-3,7.3-4.2c2.6-1.2,5.2-2.1,8-2.8s5.6-1,8.6-1l0,0c6.9,0,12.9,1.3,18,3.9c5,2.6,8.9,6.6,11.6,12.1l0,0
				c2.4-2.1,4.9-4.1,7.5-6.1c2.6-2,5.3-3.7,8.1-5.1c2.8-1.4,5.8-2.6,8.9-3.5c3.1-0.9,6.4-1.3,9.7-1.3l0,0c5.2,0,9.9,0.7,14.1,2.1
				c4.2,1.5,7.7,3.6,10.6,6.5c2.9,2.9,5.2,6.7,6.7,11.3s2.3,9.9,2.3,16.1l0,0v46.2h13.4v16h-45.1v-16h13.6V93.5
				c0-7.4-1.9-13-5.6-16.8c-3.7-3.8-9.1-5.8-16.1-5.8l0,0c-4.1,0-8.4,1-12.7,3c-4.4,2-8.1,4.5-11.2,7.5l0,0v56.1h13.3v16h-45v-16
				h13.6V93.4c0-7.4-1.9-13-5.6-16.8s-9.1-5.8-16.1-5.8l0,0c-4,0-8.1,1-12.2,2.9s-8,4.3-11.6,7.2l0,0v56.6h13.6v16h-45.1v-16h13.4
				V73.1h-13.6V73.2z M473.7,73.2v-16h31.5v80.5h14.5v16h-45.8v-16h13.8V73.3h-14V73.2z M484.5,23L484.5,23c0-1.6,0.3-3.2,1-4.6
				c0.7-1.5,1.5-2.7,2.6-3.8s2.4-2,3.9-2.6s3.1-1,4.7-1l0,0c1.6,0,3.2,0.3,4.6,1c1.5,0.7,2.7,1.5,3.8,2.6s2,2.3,2.6,3.8s1,3,1,4.6
				l0,0c0,1.7-0.3,3.3-1,4.7c-0.7,1.5-1.5,2.8-2.6,4c-1.1,1.1-2.3,2-3.8,2.7c-1.5,0.6-3,1-4.6,1l0,0c-1.7,0-3.3-0.3-4.7-1
				c-1.5-0.7-2.8-1.6-3.9-2.7c-1.1-1.1-2-2.5-2.6-4C484.8,26.2,484.5,24.6,484.5,23z M622.9,82.9h-17.5c-2.6-4.7-5.9-8.1-9.9-10.3
				s-8.6-3.2-13.9-3.2l0,0c-4,0-7.8,0.8-11.4,2.5c-3.5,1.7-6.6,4.1-9.3,7.2c-2.6,3.1-4.7,6.9-6.2,11.3c-1.5,4.5-2.3,9.4-2.3,14.8
				l0,0c0,5.4,0.8,10.3,2.3,14.7c1.5,4.4,3.6,8.1,6.3,11.1c2.7,3.1,5.8,5.4,9.3,7.1s7.3,2.5,11.3,2.5l0,0c6,0,11.2-1.5,15.6-4.4
				c4.4-2.9,7.9-7.1,10.5-12.7l0,0l14.3,7.1c-1.9,4-4.2,7.5-6.9,10.7s-5.8,5.9-9.3,8.1c-3.4,2.2-7.2,4-11.4,5.2
				c-4.1,1.2-8.5,1.8-13.1,1.8l0,0c-6.7,0-12.9-1.3-18.6-3.8c-5.7-2.5-10.6-6-14.7-10.6c-4.1-4.5-7.4-9.9-9.7-16.2
				c-2.3-6.3-3.4-13.2-3.4-20.6l0,0c0-7.5,1.2-14.3,3.6-20.6c2.4-6.3,5.7-11.7,10-16.2c4.2-4.5,9.2-8,14.8-10.6
				c5.6-2.5,11.7-3.8,18.2-3.8l0,0c6.1,0,11.8,1.1,17.3,3.2s10.2,5.3,14.3,9.6l0,0h9.8L622.9,82.9L622.9,82.9z M695.5,83
				c0-2.6-0.6-4.8-1.8-6.6s-2.8-3.3-4.7-4.5s-4-2-6.4-2.5s-4.7-0.8-6.9-0.8l0,0c-2.5,0-4.7,0.3-6.8,0.8c-2.1,0.6-3.9,1.4-5.4,2.4
				c-1.5,1.1-2.6,2.4-3.5,3.9c-0.8,1.5-1.3,3.2-1.3,5.1l0,0c0,3.2,1,5.8,2.9,7.7c2,1.9,5.2,3.7,9.8,5.3l0,0l18.5,6.5
				c8,2.7,13.8,6.3,17.4,10.9c3.7,4.6,5.5,10.1,5.5,16.5l0,0c0,4.3-0.9,8.2-2.6,11.8c-1.7,3.6-4.1,6.6-7.3,9.1
				c-3.1,2.5-6.9,4.5-11.3,5.9c-4.4,1.4-9.3,2.1-14.7,2.1l0,0c-7.5,0-13.6-1.2-18.4-3.7c-4.7-2.4-8.4-5.6-10.9-9.6l0,0h-9.7v-16
				h19.3c0,2.7,0.6,5,1.7,6.9c1.1,1.9,2.7,3.4,4.6,4.6c1.9,1.2,4,2.1,6.4,2.6c2.4,0.6,4.8,0.8,7.3,0.8l0,0c2.4,0,4.7-0.3,7-0.9
				c2.2-0.6,4.2-1.5,5.9-2.6s3.1-2.5,4-4.1c1-1.6,1.5-3.5,1.5-5.5l0,0c0-3.1-1-5.7-3-7.9c-2-2.2-5.5-4.1-10.3-5.9l0,0l-18.5-6.9
				c-7.5-2.7-13.1-6.1-16.7-10.2c-3.6-4.1-5.5-9.3-5.5-15.5l0,0c0-4.1,0.8-7.9,2.3-11.4s3.7-6.5,6.6-9c2.9-2.5,6.4-4.5,10.6-5.9
				c4.1-1.4,8.9-2.1,14.2-2.1l0,0c6.9,0,12.7,1,17.3,2.9c4.7,1.9,8.9,5.2,12.6,9.8l0,0h9v16L695.5,83L695.5,83z"/>
		</g>
	</g>
</g>
<g>
	<g transform="matrix(3.608071185942525, 0, 0, 3.608071185942525, 133.58510042953742, 1)">
		<path class="st1" d="M50.4,47.3C49.3,66,31.1,67.5,31.1,67.5s-13.9,1.7-20.6-12.3C9.2,52.5,5.6,42.6,15,29.7
			c7.8-10.5,9.1-20.1,8.8-26.1c-0.2-4.2,2.1-5.1,4.9-2.1c4.3,4.5,8.8,13.6,5.9,31c-1.2,6.7-1.1,9.3,2.3,9.7c4.2,0.5,4.3-10,4-16.1
			c-0.2-3,1.2-3.5,3.1-1.1c1.4,1.9,3.1,4.8,4.6,9.4C50.3,39.9,50.7,44.2,50.4,47.3z"/>
	</g>
</g>
</svg>
